<svg width="25" height="25" xmlns="http://www.w3.org/2000/svg" viewBox="0 0 303 303" class="ProductFavoritesIcon"><path d="M 71.85 267 c 0.7 -3.47 1.35 -6.75 2 -10 L 85.44 199.6 Q 88 186.81 90.62 174 a 1.52 1.52 0 1 0 -0.51 -1.63 q -32.24 -30.51 -64.45 -61 l -2.74 -2.59 l 5.44 -0.63 l 21.55 -2.4 l 21.18 -2.33 l 22.86 -2.56 c 6.31 -0.7 12.62 -1.42 18.94 -2.08 a 1.39 1.39 0 0 0 1.31 -1 q 13.17 -31.12 26.37 -62.23 l 9.93 -23.42 c 0.13 -0.31 0.28 -0.61 0.5 -1.08 c 0.22 0.46 0.38 0.78 0.52 1.11 q 18.14 42.78 36.26 85.56 a 1.54 1.54 0 0 0 1.46 1.11 q 16.94 1.82 33.87 3.73 l 35.55 3.95 l 19.87 2.22 l 0.34 0.05 l 0.26 0.33 a 4.37 4.37 0 0 0 -0.88 0.51 q -26.78 25.35 -53.54 50.71 q -6.44 6.11 -12.9 12.2 a 1.3 1.3 0 0 0 -0.46 1.38 q 4.09 20.15 8.14 40.3 L 230 266.35 c 0 0.18 0.05 0.36 0.1 0.67 l -1 -0.57 Q 190.54 243 152 219.62 a 1.57 1.57 0 0 0 -1.92 0 q -38.58 23.44 -77.19 46.84 Z Z"></path></svg>