<?xml version="1.0" encoding="UTF-8"?>
<svg version="1.1" xmlns="http://www.w3.org/2000/svg" width="40em" height="9em">
<path d="M0 0 C7.13414634 5.26829268 7.13414634 5.26829268 9 9 C9.07347656 7.93458984 9.07347656 7.93458984 9.1484375 6.84765625 C9.22320312 5.92855469 9.29796875 5.00945313 9.375 4.0625 C9.44460938 3.14597656 9.51421875 2.22945312 9.5859375 1.28515625 C9.72257812 0.53105469 9.85921875 -0.22304688 10 -1 C12.50549445 -2.25274723 14.19735632 -2.12029624 17.00048828 -2.11352539 C18.56188034 -2.11341209 18.56188034 -2.11341209 20.15481567 -2.11329651 C21.28192963 -2.10813522 22.40904358 -2.10297394 23.5703125 -2.09765625 C24.72167694 -2.0962413 25.87304138 -2.09482635 27.05929565 -2.09336853 C30.74788986 -2.08775716 34.43642405 -2.0752027 38.125 -2.0625 C40.62109288 -2.05748647 43.1171867 -2.05292331 45.61328125 -2.04882812 C51.74220809 -2.03778403 57.87109976 -2.0210348 64 -2 C66.30443842 2.60887683 65.82819075 8.0474193 65 13 C62.61854378 17.27606302 59.41527102 20.52219585 56 24 C54.98769517 25.09351461 53.98002505 26.19133443 52.9765625 27.29296875 C50.93347901 29.53323992 48.8785815 31.76112516 46.80859375 33.9765625 C42.30314171 38.80954656 37.94971197 43.70117293 34 49 C35.40076782 49.03758423 35.40076782 49.03758423 36.82983398 49.07592773 C40.28325189 49.17086928 43.7364896 49.27011258 47.18969727 49.37231445 C48.68639269 49.41571813 50.18313939 49.45738913 51.67993164 49.49731445 C53.82714312 49.55488616 55.97409521 49.61861716 58.12109375 49.68359375 C59.4145874 49.72025146 60.70808105 49.75690918 62.04077148 49.79467773 C65 50 65 50 66 51 C66.09909302 53.33160055 66.12970504 55.66629942 66.125 58 C66.12757813 59.27875 66.13015625 60.5575 66.1328125 61.875 C66 65 66 65 65 66 C63.2507128 66.09365006 61.49763746 66.11744438 59.74584961 66.11352539 C58.62476303 66.11344986 57.50367645 66.11337433 56.34861755 66.11329651 C54.51896202 66.10555458 54.51896202 66.10555458 52.65234375 66.09765625 C51.41078018 66.0962413 50.16921661 66.09482635 48.89002991 66.09336853 C45.58394509 66.08870591 42.27792854 66.07971497 38.97186279 66.06866455 C35.6003885 66.05844827 32.22890717 66.05387045 28.85742188 66.04882812 C22.23826225 66.03777395 15.61913507 66.02101736 9 66 C8.01 62.535 8.01 62.535 7 59 C6.61070312 59.39832031 6.22140625 59.79664063 5.8203125 60.20703125 C-0.39802232 66.09582298 -6.94401722 68.08421029 -15.4375 68.375 C-24.91872199 68.05360264 -33.11686064 65.7270591 -40 59 C-42.64531297 55.8929117 -44.69719652 52.90841044 -46 49 C-46.33 54.61 -46.66 60.22 -47 66 C-52.94 66 -58.88 66 -65 66 C-65.794205 50.32863345 -66.10913686 34.68882609 -66.125 19 C-66.12749756 18.1218161 -66.12999512 17.2436322 -66.13256836 16.33883667 C-66.13843399 13.83001715 -66.13698371 11.32132074 -66.1328125 8.8125 C-66.13479645 8.05215958 -66.1367804 7.29181915 -66.13882446 6.50843811 C-66.11528037 1.23056074 -66.11528037 1.23056074 -65 -1 C-62.18743719 -1.02684312 -59.37512759 -1.04676188 -56.5625 -1.0625 C-55.76005859 -1.07087891 -54.95761719 -1.07925781 -54.13085938 -1.08789062 C-52.08704779 -1.0965143 -50.04316098 -1.0522815 -48 -1 C-46.00383446 0.99616554 -46.59016573 4.81701963 -46.4375 7.5625 C-46.39431641 8.27341797 -46.35113281 8.98433594 -46.30664062 9.71679688 C-46.20028223 11.47761912 -46.09961154 13.2387832 -46 15 C-45.6596875 14.41992188 -45.319375 13.83984375 -44.96875 13.2421875 C-40.41821612 5.90808236 -34.8201352 0.2441358 -26.4609375 -2.53125 C-17.9441831 -4.15348893 -7.74917707 -4.3504152 0 0 Z M-25 15 C-27.99884341 18.7090958 -29 20.1704783 -29 25 C-21.08 25 -13.16 25 -5 25 C-6.02354843 18.85870939 -6.54986294 17.07140199 -11 13 C-16.23670595 11.06047928 -20.42531761 11.77692832 -25 15 Z M12 14 C12.19916016 15.10794922 12.19916016 15.10794922 12.40234375 16.23828125 C12.57894531 17.25277344 12.75554687 18.26726563 12.9375 19.3125 C13.11152344 20.29863281 13.28554688 21.28476562 13.46484375 22.30078125 C14.17018869 27.17641378 14.55398574 32.09384312 15 37 C0.15 37.33 -14.7 37.66 -30 38 C-29.0538131 43.67712142 -28.57379964 45.76786885 -25 50 C-20.50797965 52.67793521 -16.94232348 53.52412518 -11.86328125 52.65625 C-8.77686755 51.56921121 -7.03819327 49.4705373 -5 47 C-4.67 46.67 -4.34 46.34 -4 46 C-2.81921875 46.06960937 -1.6384375 46.13921875 -0.421875 46.2109375 C8.17617671 46.71937824 8.17617671 46.71937824 15.97900391 43.64599609 C19.68839423 40.13082528 22.65972842 36.05534684 25.60986328 31.89892578 C27.54953952 29.2493294 29.7513413 26.8889691 32 24.5 C35.32319585 20.84020051 38.23819543 17.09816161 41 13 C31.26055028 12.87723383 21.70943816 13.16220564 12 14 Z " fill="#101010" transform="translate(361,30)"/>
<path d="M0 0 C1.00730415 -0.00262848 1.00730415 -0.00262848 2.03495789 -0.00531006 C4.26486765 -0.00972777 6.49469874 -0.00679089 8.72460938 -0.00341797 C10.26778173 -0.00409103 11.81095398 -0.00506108 13.35412598 -0.00631714 C16.59237678 -0.007794 19.83060005 -0.00563993 23.06884766 -0.00097656 C27.2287846 0.00472073 31.38865704 0.00144166 35.54859161 -0.00454903 C38.73635345 -0.00815496 41.92409989 -0.00701591 45.11186218 -0.00442123 C46.6461335 -0.00375205 48.1804062 -0.00458008 49.7146759 -0.00690079 C51.85539478 -0.00942784 53.9960078 -0.00558601 56.13671875 0 C57.96752991 0.00119339 57.96752991 0.00119339 59.83532715 0.00241089 C62.56835938 0.12939453 62.56835938 0.12939453 63.56835938 1.12939453 C63.69903486 2.54445465 63.76427232 3.96565041 63.80200195 5.38623047 C63.84258476 6.74334137 63.84258476 6.74334137 63.88398743 8.12786865 C63.91002548 9.11321594 63.93606354 10.09856323 63.96289062 11.11376953 C64.03169441 13.18411071 64.10138399 15.25442261 64.171875 17.32470703 C64.27913555 20.60093999 64.38079506 23.87695083 64.46704102 27.15380859 C64.55253907 30.30794869 64.66204818 33.46052328 64.77539062 36.61376953 C64.79535599 37.5910199 64.81532135 38.56827026 64.83589172 39.57513428 C65.0078875 43.89649543 65.17990638 46.48757202 67.45410156 50.24511719 C70.82054045 53.24536838 73.60653519 52.81417874 77.93164062 52.62939453 C81.72439158 51.91017657 83.36355652 50.21611853 85.56835938 47.12939453 C86.72141942 44.82327444 86.71626871 43.446433 86.7578125 40.87915039 C86.77453003 40.00161606 86.79124756 39.12408173 86.80847168 38.21995544 C86.82204712 37.27096878 86.83562256 36.32198212 86.84960938 35.34423828 C86.8680188 34.37281387 86.88642822 33.40138947 86.90539551 32.40052795 C86.98427281 28.23173296 87.0519619 24.06277291 87.12060547 19.89379883 C87.17219577 16.85636051 87.22949233 13.81906726 87.28710938 10.78173828 C87.30068481 9.83072739 87.31426025 8.87971649 87.32824707 7.89988708 C87.3449646 7.02550491 87.36168213 6.15112274 87.37890625 5.25024414 C87.39769836 4.09014076 87.39769836 4.09014076 87.41687012 2.90660095 C87.56835938 1.12939453 87.56835938 1.12939453 88.56835938 0.12939453 C91.41170985 0.02952478 94.22533101 -0.00938428 97.06835938 0.00439453 C98.26525391 -0.00140625 98.26525391 -0.00140625 99.48632812 -0.00732422 C105.4417517 0.00278686 105.4417517 0.00278686 106.56835938 1.12939453 C106.66249625 3.18496115 106.68578935 5.24379634 106.68188477 7.30151367 C106.68203079 7.94539536 106.68217682 8.58927704 106.68232727 9.25267029 C106.68162823 11.38999756 106.67383628 13.52723866 106.66601562 15.66455078 C106.66415141 17.14285738 106.66272753 18.6211646 106.66172791 20.09947205 C106.65790296 23.99738255 106.64807289 27.89525602 106.63702393 31.79315186 C106.62680929 35.76785786 106.62223017 39.74256982 106.6171875 43.71728516 C106.60645059 51.52134049 106.588854 59.32535761 106.56835938 67.12939453 C100.95835937 67.12939453 95.34835938 67.12939453 89.56835938 67.12939453 C88.90835938 65.47939453 88.24835938 63.82939453 87.56835938 62.12939453 C86.68148437 62.91314453 85.79460937 63.69689453 84.88085938 64.50439453 C79.04918995 69.65796286 72.72078541 69.63876955 65.24804688 69.44580078 C58.91290696 68.90105945 55.30131061 67.03564089 51.06835938 62.37939453 C50.57335937 61.63689453 50.07835937 60.89439453 49.56835938 60.12939453 C49.42398438 61.26376953 49.27960938 62.39814453 49.13085938 63.56689453 C48.56835938 67.12939453 48.56835938 67.12939453 47.56835938 68.12939453 C45.82999647 68.23349886 44.0874116 68.2679298 42.34594727 68.2746582 C41.23131607 68.28103806 40.11668488 68.28741791 38.96827698 68.29399109 C37.14803261 68.29566032 37.14803261 68.29566032 35.29101562 68.29736328 C33.43578529 68.30235588 33.43578529 68.30235588 31.54307556 68.30744934 C28.92105482 68.31252383 26.2990276 68.31485751 23.67700195 68.31469727 C20.98129595 68.31461582 18.28575919 68.3215811 15.59008789 68.33520508 C11.71951039 68.35344799 7.84913171 68.35843039 3.97851562 68.35986328 C2.1613076 68.37064156 2.1613076 68.37064156 0.30738831 68.38163757 C-0.81039505 68.37856094 -1.92817841 68.37548431 -3.07983398 68.37231445 C-4.06721054 68.37373947 -5.0545871 68.37516449 -6.07188416 68.37663269 C-8.43164062 68.12939453 -8.43164062 68.12939453 -10.43164062 66.12939453 C-10.73242188 63.70361328 -10.73242188 63.70361328 -10.74414062 60.81689453 C-10.76089844 59.87201172 -10.77765625 58.92712891 -10.79492188 57.95361328 C-10.1032652 52.57654043 -6.75593099 49.18487658 -3.18164062 45.31689453 C-2.37855469 44.43904297 -1.57546875 43.56119141 -0.74804688 42.65673828 C0.01636719 41.82271484 0.78078125 40.98869141 1.56835938 40.12939453 C3.92572337 37.48337372 6.24963258 34.80930762 8.56835938 32.12939453 C9.04273437 31.58138184 9.51710938 31.03336914 10.00585938 30.46875 C11.63311766 28.58673406 13.25737624 26.70216763 14.88085938 24.81689453 C15.4091333 24.20555664 15.93740723 23.59421875 16.48168945 22.96435547 C17.23035278 22.09278809 17.23035278 22.09278809 17.99414062 21.20361328 C18.44184814 20.68371826 18.88955566 20.16382324 19.35083008 19.62817383 C20.51329247 18.19718192 21.54568465 16.66340661 22.56835938 15.12939453 C21.73062988 15.16492432 20.89290039 15.2004541 20.02978516 15.23706055 C16.92512361 15.36618791 13.8203179 15.49051501 10.71533203 15.61157227 C8.70915866 15.69126691 6.70320862 15.77651971 4.69726562 15.86181641 C3.44042969 15.91015625 2.18359375 15.95849609 0.88867188 16.00830078 C-0.27390137 16.05543213 -1.43647461 16.10256348 -2.63427734 16.15112305 C-5.43164062 16.12939453 -5.43164062 16.12939453 -7.43164062 15.12939453 C-7.45849474 12.81695661 -7.47796904 10.50443183 -7.49414062 8.19189453 C-7.50574219 6.90412109 -7.51734375 5.61634766 -7.52929688 4.28955078 C-7.35855946 -1.23551202 -4.95447983 0.00322951 0 0 Z M43.3125 19.33178711 C42.78849609 19.89019287 42.26449219 20.44859863 41.72460938 21.02392578 C41.14203369 21.64460938 40.55945801 22.26529297 39.95922852 22.90478516 C39.3352417 23.57703125 38.71125488 24.24927734 38.06835938 24.94189453 C37.43341553 25.62316406 36.79847168 26.30443359 36.14428711 27.00634766 C31.73584555 31.77344019 27.59181156 36.66902382 23.54492188 41.74658203 C21.13099131 44.65665643 18.52523264 47.28818586 15.78320312 49.88720703 C14.451827 50.95896798 14.451827 50.95896798 14.56835938 52.12939453 C25.12835938 52.12939453 35.68835938 52.12939453 46.56835938 52.12939453 C46.23835938 40.90939453 45.90835938 29.68939453 45.56835938 18.12939453 C44.398969 18.01413391 44.398969 18.01413391 43.3125 19.33178711 Z " fill="#101010" transform="translate(87.431640625,28.87060546875)"/>
<path d="M0 0 C3.83625004 2.14922442 7.36021974 4.6764148 10.875 7.3125 C11.596875 6.549375 12.31875 5.78625 13.0625 5 C18.75561106 -0.4400839 23.2137646 -2.061829 30.921875 -1.9609375 C37.09093446 -1.38972829 41.95546865 0.97414187 46.25 5.4375 C51.79934231 12.88515514 52.31713773 21.54735418 52.203125 30.53515625 C52.20125183 31.56184921 52.19937866 32.58854218 52.19744873 33.64634705 C52.19077508 35.79510798 52.17695541 37.94385776 52.15625 40.0925293 C52.12478973 43.39708619 52.11524262 46.7011668 52.109375 50.00585938 C52.10021607 52.09896421 52.08984387 54.19206418 52.078125 56.28515625 C52.07387512 57.27669205 52.06962524 58.26822784 52.06524658 59.28981018 C52.05563904 60.19843307 52.04603149 61.10705597 52.03613281 62.04321289 C52.02930481 62.84578018 52.02247681 63.64834747 52.01544189 64.47523499 C51.875 66.3125 51.875 66.3125 50.875 67.3125 C48.03164952 67.41236975 45.21802837 67.45127881 42.375 67.4375 C41.17810547 67.44330078 41.17810547 67.44330078 39.95703125 67.44921875 C34.00160767 67.43910767 34.00160767 67.43910767 32.875 66.3125 C32.75157803 63.29343824 32.68879672 60.29377544 32.6640625 57.2734375 C32.63597575 55.39452281 32.60731118 53.51561668 32.578125 51.63671875 C32.5369786 48.66781009 32.50010304 45.69905821 32.47363281 42.72998047 C32.44589931 39.86912661 32.40000637 37.00900588 32.3515625 34.1484375 C32.34830963 33.26900482 32.34505676 32.38957214 32.34170532 31.48348999 C32.2338892 26.0354662 31.52000084 22.11557221 28.875 17.3125 C25.14244552 14.82413035 23.29059065 14.77023448 18.875 15.3125 C15.05985256 19.02724883 13.77246912 22.35159988 13.68554688 27.58447266 C13.66047058 28.87062973 13.66047058 28.87062973 13.6348877 30.18276978 C13.62131226 31.10472137 13.60773682 32.02667297 13.59375 32.9765625 C13.57534058 33.92437592 13.55693115 34.87218933 13.53796387 35.84872437 C13.45919502 39.90912482 13.39134917 43.96969032 13.32275391 48.03027344 C13.27117398 50.99162374 13.21388261 53.95282484 13.15625 56.9140625 C13.14267456 57.84006256 13.12909912 58.76606262 13.1151123 59.72012329 C13.09003601 60.99682388 13.09003601 60.99682388 13.06445312 62.29931641 C13.04566101 63.42824814 13.04566101 63.42824814 13.02648926 64.57998657 C12.875 66.3125 12.875 66.3125 11.875 67.3125 C9.03164952 67.41236975 6.21802837 67.45127881 3.375 67.4375 C2.17810547 67.44330078 2.17810547 67.44330078 0.95703125 67.44921875 C-4.99839233 67.43910767 -4.99839233 67.43910767 -6.125 66.3125 C-6.2315234 64.92724835 -6.27117646 63.53675437 -6.28271484 62.14746094 C-6.29297699 61.26274109 -6.30323914 60.37802124 -6.31381226 59.4664917 C-6.32111359 58.50301819 -6.32841492 57.53954468 -6.3359375 56.546875 C-6.36401359 54.52212744 -6.3926781 52.49738796 -6.421875 50.47265625 C-6.46310843 47.26872038 -6.49997995 44.0649343 -6.52636719 40.86083984 C-6.55399349 37.77669712 -6.59987625 34.69324967 -6.6484375 31.609375 C-6.65169037 30.65399841 -6.65494324 29.69862183 -6.65829468 28.71429443 C-6.74886891 23.80830927 -6.84973818 20.25243846 -10.125 16.3125 C-13.26371188 14.74314406 -15.66355822 14.96048897 -19.125 15.3125 C-22.28454305 17.85387159 -23.84040886 19.45872659 -25.125 23.3125 C-25.23849848 24.76956917 -25.30101475 26.23094959 -25.33032227 27.69213867 C-25.35026749 28.57282516 -25.37021271 29.45351166 -25.39076233 30.36088562 C-25.41583107 31.78132927 -25.41583107 31.78132927 -25.44140625 33.23046875 C-25.46218735 34.20284988 -25.48296844 35.17523102 -25.50437927 36.17707825 C-25.56978748 39.28464665 -25.62871929 42.39229985 -25.6875 45.5 C-25.73069351 47.60612858 -25.77430807 49.71224856 -25.81835938 51.81835938 C-25.92545999 56.98298591 -26.02675219 62.14769778 -26.125 67.3125 C-32.065 67.3125 -38.005 67.3125 -44.125 67.3125 C-45.22198407 30.38723261 -45.22198407 30.38723261 -45.25 13.5625 C-45.25451172 12.44061279 -45.25902344 11.31872559 -45.26367188 10.1628418 C-45.26173828 9.14488525 -45.25980469 8.12692871 -45.2578125 7.078125 C-45.25668457 6.19930664 -45.25555664 5.32048828 -45.25439453 4.41503906 C-45.125 2.3125 -45.125 2.3125 -44.125 0.3125 C-38.845 0.3125 -33.565 0.3125 -28.125 0.3125 C-27.465 2.6225 -26.805 4.9325 -26.125 7.3125 C-25.135 6.19875 -25.135 6.19875 -24.125 5.0625 C-17.37475919 -1.59293406 -8.81629238 -4.16986802 0 0 Z " fill="#0F0F0F" transform="translate(241.125,28.6875)"/>
</svg>
