<?xml version="1.0" encoding="UTF-8"?>
<svg version="1.1" xmlns="http://www.w3.org/2000/svg" width="58" height="58">
<path d="M0 0 C19.14 0 38.28 0 58 0 C58 19.14 58 38.28 58 58 C38.86 58 19.72 58 0 58 C0 38.86 0 19.72 0 0 Z " fill="#FDFDFD" transform="translate(0,0)"/>
<path d="M0 0 C5.65859843 2.34455914 9.47378041 6.0846636 13 11 C14.58935702 15.76807106 15.05509789 20.50454026 13.05859375 25.2265625 C9.81527175 30.65582253 5.84960332 34.46840372 0 37 C-5.64943037 37.79092025 -10.17300113 37.18143107 -15 34 C-20.35143902 29.51972547 -22.66700318 24.9969714 -23.4375 18.0625 C-23.15277098 12.40077291 -21.17877661 8.08559064 -17.08203125 4.1640625 C-11.64803676 0.06692683 -6.72750244 -1.44315778 0 0 Z " fill="#F3F3F3" transform="translate(34,9)"/>
<path d="M0 0 C5.65859843 2.34455914 9.47378041 6.0846636 13 11 C14.58935702 15.76807106 15.05509789 20.50454026 13.05859375 25.2265625 C9.81527175 30.65582253 5.84960332 34.46840372 0 37 C-5.64943037 37.79092025 -10.17300113 37.18143107 -15 34 C-20.35143902 29.51972547 -22.66700318 24.9969714 -23.4375 18.0625 C-23.15277098 12.40077291 -21.17877661 8.08559064 -17.08203125 4.1640625 C-11.64803676 0.06692683 -6.72750244 -1.44315778 0 0 Z M-18.3125 8.5 C-21.3204788 12.95626489 -21.76030228 17.67788404 -21 23 C-19.88947746 25.57505446 -18.56630665 27.65054002 -17 30 C-16.67 30 -16.34 30 -16 30 C-15.01 26.535 -15.01 26.535 -14 23 C-9.90863934 22.28845901 -5.90370157 21.87180943 -1.75 21.75 C-0.91984375 21.72421875 -0.0896875 21.6984375 0.765625 21.671875 C3.5145473 22.07556289 4.34599001 22.80675165 6 25 C6.6875 27.6875 6.6875 27.6875 7 30 C10.96287071 26.57752075 11.87680304 23.2730353 12.375 18.125 C12.21183497 12.35983571 9.66551308 8.58223742 5.5 4.625 C-2.92715897 -0.85265333 -11.79767874 1.45694999 -18.3125 8.5 Z " fill="#2F2F2F" transform="translate(34,9)"/>
<path d="M0 0 C5.65859843 2.34455914 9.47378041 6.0846636 13 11 C14.79751401 16.39254202 14.70522993 21.32507891 12.5 26.5625 C12.005 27.366875 11.51 28.17125 11 29 C10.34 28.34 9.68 27.68 9 27 C9.33 26.34 9.66 25.68 10 25 C11.47831801 20.56504596 11.93515221 16.42464723 10.2421875 12.03515625 C8.3798486 8.56709995 6.44104743 5.93558918 3 4 C-2.70720732 2.30228643 -8.03425429 1.98072444 -13.375 4.75 C-16.92758739 7.7950749 -19.34444732 10.28002068 -20 15 C-20.25436428 20.2568617 -19.98256731 24.04358171 -18 29 C-18.99 28.67 -19.98 28.34 -21 28 C-23.41748791 22.78331556 -23.96400183 17.44193944 -22.41796875 11.921875 C-18.55692706 2.68358346 -9.80515838 -2.10336462 0 0 Z " fill="#444444" transform="translate(34,9)"/>
<path d="M0 0 C2.31282587 3.46923881 2.42478586 4.92205575 2 9 C0.9375 10.875 0.9375 10.875 -1 12 C-4.4093712 12.36528977 -6.88023824 12.6140629 -9.9375 10.9375 C-11.63335287 7.84506242 -11.43060657 5.44485259 -11 2 C-7.88980721 -1.98104677 -4.56233816 -1.18282841 0 0 Z " fill="#2E2E2E" transform="translate(34,17)"/>
<path d="M0 0 C0.66 0.33 1.32 0.66 2 1 C2.35050464 6.841744 2.16727335 10.8531808 -1 16 C-1.66 15.34 -2.32 14.68 -3 14 C-2.5359375 13.0409375 -2.5359375 13.0409375 -2.0625 12.0625 C-0.68064597 8.07950896 -0.3463457 4.18349151 0 0 Z " fill="#525252" transform="translate(46,22)"/>
<path d="M0 0 C1.62463842 -0.05395478 3.24978541 -0.09277195 4.875 -0.125 C5.77992187 -0.14820313 6.68484375 -0.17140625 7.6171875 -0.1953125 C10 0 10 0 12 2 C8.70303895 3.09898702 7.59505097 2.87124444 4.3125 2.0625 C3.50425781 1.86785156 2.69601563 1.67320313 1.86328125 1.47265625 C0.94095703 1.23869141 0.94095703 1.23869141 0 1 C0 0.67 0 0.34 0 0 Z " fill="#575757" transform="translate(24,9)"/>
</svg>
