<?xml version="1.0" encoding="UTF-8"?>
<svg version="1.1" xmlns="http://www.w3.org/2000/svg" width="51" height="68">
<path d="M0 0 C1.67542976 0.28604898 3.34385343 0.61781233 5 1 C5 1.66 5 2.32 5 3 C3.68 2.67 2.36 2.34 1 2 C1.66 4.64 2.32 7.28 3 10 C4.13888672 10.16822266 4.13888672 10.16822266 5.30078125 10.33984375 C13.21227852 11.90982959 13.21227852 11.90982959 15.36328125 14.88671875 C16.17276294 17.26534955 16.64479963 19.51359742 17 22 C17.18755859 23.00353516 17.18755859 23.00353516 17.37890625 24.02734375 C18.52337582 31.57504812 18.08406438 39.38750347 18 47 C7.91196516 51.04893915 1.68745866 49.06639937 -8.3046875 45.25390625 C-11 44 -11 44 -12 42 C-12.01655737 39.58857776 -11.97328468 37.21218993 -11.87890625 34.8046875 C-11.85529526 34.09724396 -11.83168427 33.38980042 -11.80735779 32.66091919 C-11.73071166 30.39874245 -11.64669188 28.13690727 -11.5625 25.875 C-11.50928023 24.3424647 -11.45653982 22.80991266 -11.40429688 21.27734375 C-11.27509533 17.51801239 -11.13927963 13.75897092 -11 10 C-10.01 10 -9.02 10 -8 10 C-8 8.02 -8 6.04 -8 4 C-7.34 3.67 -6.68 3.34 -6 3 C-3.43730503 4.04109483 -1.97389657 5.02610343 0 7 C-0.185625 6.030625 -0.37125 5.06125 -0.5625 4.0625 C-0.706875 3.051875 -0.85125 2.04125 -1 1 C-0.67 0.67 -0.34 0.34 0 0 Z M-7 5 C-6.67 6.32 -6.34 7.64 -6 9 C-4.68 8.67 -3.36 8.34 -2 8 C-3.37485532 6.45833358 -3.37485532 6.45833358 -5 5 C-5.66 5 -6.32 5 -7 5 Z " fill="#3A3A3A" transform="translate(22,5)"/>
<path d="M0 0 C1.65 0.33 3.3 0.66 5 1 C5 1.66 5 2.32 5 3 C3.68 2.67 2.36 2.34 1 2 C1.66 4.64 2.32 7.28 3 10 C4.13888672 10.16822266 4.13888672 10.16822266 5.30078125 10.33984375 C13.21227852 11.90982959 13.21227852 11.90982959 15.36328125 14.88671875 C16.17276294 17.26534955 16.64479963 19.51359742 17 22 C17.18755859 23.00353516 17.18755859 23.00353516 17.37890625 24.02734375 C18.52337582 31.57504812 18.08406438 39.38750347 18 47 C15.03 47.99 12.06 48.98 9 50 C7.19205634 48.19205634 7.86771769 45.72691657 7.86132812 43.32177734 C7.86583984 42.53496582 7.87035156 41.7481543 7.875 40.9375 C7.87693359 40.13779785 7.87886719 39.3380957 7.88085938 38.51416016 C7.93659967 30.65322961 8.4021569 22.83601494 9 15 C6.58354218 14.83312552 6.58354218 14.83312552 4 15 C3.34 15.66 2.68 16.32 2 17 C2 15.68 2 14.36 2 13 C1.01 12.67 0.02 12.34 -1 12 C-0.34 12 0.32 12 1 12 C0.649375 10.7625 0.29875 9.525 -0.0625 8.25 C-0.95593273 5.096708 -1.00881294 3.13225836 0 0 Z " fill="#3B3B3B" transform="translate(22,5)"/>
<path d="M0 0 C1.65 0.33 3.3 0.66 5 1 C5 1.66 5 2.32 5 3 C3.68 2.67 2.36 2.34 1 2 C1.66 4.64 2.32 7.28 3 10 C8.445 11.485 8.445 11.485 14 13 C12.68 13.33 11.36 13.66 10 14 C10 23.57 10 33.14 10 43 C11.65 43.33 13.3 43.66 15 44 C16.485 44.495 16.485 44.495 18 45 C17.67 45.99 17.34 46.98 17 48 C15.1875 48.765625 15.1875 48.765625 13 49.25 C12.278125 49.42015625 11.55625 49.5903125 10.8125 49.765625 C10.214375 49.84296875 9.61625 49.9203125 9 50 C7.19205634 48.19205634 7.86771769 45.72691657 7.86132812 43.32177734 C7.86583984 42.53496582 7.87035156 41.7481543 7.875 40.9375 C7.87693359 40.13779785 7.87886719 39.3380957 7.88085938 38.51416016 C7.93659967 30.65322961 8.4021569 22.83601494 9 15 C6.58354218 14.83312552 6.58354218 14.83312552 4 15 C3.34 15.66 2.68 16.32 2 17 C2 15.68 2 14.36 2 13 C1.01 12.67 0.02 12.34 -1 12 C-0.34 12 0.32 12 1 12 C0.649375 10.7625 0.29875 9.525 -0.0625 8.25 C-0.95593273 5.096708 -1.00881294 3.13225836 0 0 Z " fill="#979797" transform="translate(22,5)"/>
<path d="M0 0 C2 2 2 2 2.1953125 4.3828125 C2.17210937 5.28773437 2.14890625 6.19265625 2.125 7.125 C2.10695312 8.03507812 2.08890625 8.94515625 2.0703125 9.8828125 C2.03550781 10.93082031 2.03550781 10.93082031 2 12 C3.1446875 12.2165625 3.1446875 12.2165625 4.3125 12.4375 C7 13 7 13 10 14 C9.67 14.99 9.34 15.98 9 17 C7.1875 17.765625 7.1875 17.765625 5 18.25 C4.278125 18.42015625 3.55625 18.5903125 2.8125 18.765625 C2.214375 18.84296875 1.61625 18.9203125 1 19 C0 18 0 18 -0.11352539 16.23413086 C-0.10828857 15.48526611 -0.10305176 14.73640137 -0.09765625 13.96484375 C-0.09443359 13.15595703 -0.09121094 12.34707031 -0.08789062 11.51367188 C-0.07951172 10.66353516 -0.07113281 9.81339844 -0.0625 8.9375 C-0.05798828 8.08349609 -0.05347656 7.22949219 -0.04882812 6.34960938 C-0.03700373 4.23304337 -0.01906769 2.11651315 0 0 Z " fill="#7E7E7E" transform="translate(30,36)"/>
<path d="M0 0 C1.65 0.33 3.3 0.66 5 1 C5 1.66 5 2.32 5 3 C3.68 2.67 2.36 2.34 1 2 C1.66 4.64 2.32 7.28 3 10 C5.64 10.66 8.28 11.32 11 12 C8 14 8 14 5 13.625 C1.25495667 11.59643486 0.70003189 9.95746872 -0.65234375 6.0703125 C-1.04369924 3.73976856 -0.72473114 2.22917303 0 0 Z " fill="#545454" transform="translate(22,5)"/>
<path d="M0 0 C0 0.66 0 1.32 0 2 C-0.66 2 -1.32 2 -2 2 C-2.66 3.32 -3.32 4.64 -4 6 C-4.66 6 -5.32 6 -6 6 C-5.814375 5.38125 -5.62875 4.7625 -5.4375 4.125 C-4.76313824 1.95839822 -4.76313824 1.95839822 -6 0 C-2.25 -1.125 -2.25 -1.125 0 0 Z " fill="#414141" transform="translate(23,15)"/>
<path d="M0 0 C1.67542976 0.28604898 3.34385343 0.61781233 5 1 C5 1.66 5 2.32 5 3 C3.68 2.67 2.36 2.34 1 2 C1.33 3.65 1.66 5.3 2 7 C1.34 7 0.68 7 0 7 C-0.38133299 5.0085944 -0.71325582 3.00720923 -1 1 C-0.67 0.67 -0.34 0.34 0 0 Z " fill="#A9A9A9" transform="translate(22,5)"/>
<path d="M0 0 C0.99 0.33 1.98 0.66 3 1 C3 2.32 3 3.64 3 5 C0.03 4.505 0.03 4.505 -3 4 C-2.67 3.34 -2.34 2.68 -2 2 C-1.34 2 -0.68 2 0 2 C0 1.34 0 0.68 0 0 Z " fill="#3F3F3F" transform="translate(27,50)"/>
<path d="" fill="#717171" transform="translate(0,0)"/>
</svg>
