<?xml version="1.0" encoding="UTF-8"?>
<svg version="1.1" xmlns="http://www.w3.org/2000/svg" width="401" height="228">
<path d="M0 0 C8.67961571 0.2292631 16.73218137 2.89196481 24.96482849 5.43823242 C26.58210858 5.92187464 28.1999461 6.40365686 29.81834412 6.88354492 C33.72807479 8.04717198 37.62947499 9.23544792 41.52732849 10.43823242 C41.52732849 7.79823242 41.52732849 5.15823242 41.52732849 2.43823242 C45.04382419 1.51724545 47.28443723 1.37865532 50.83982849 2.25073242 C53.52732849 4.43823242 53.52732849 4.43823242 54.12498474 6.86791992 C54.37993108 9.40302011 54.4758585 11.89255454 54.52732849 14.43823242 C55.89390343 14.76986641 55.89390343 14.76986641 57.28808594 15.10820007 C68.77842221 17.92402936 80.16596738 21.07139681 91.55467224 24.27026367 C93.55694253 24.83089709 95.55926816 25.39133293 97.56164551 25.95158386 C102.8016509 27.41826212 108.0409138 28.88757515 113.28001404 30.35748291 C119.57119783 32.12198032 125.86328391 33.88325781 132.15532875 35.64468193 C137.19379325 37.05542152 142.23177099 38.46784933 147.26863098 39.88430786 C155.48223389 42.19311668 163.69612693 44.49642014 171.93406677 46.71704102 C173.12093582 47.03960373 174.30780487 47.36216644 175.53063965 47.69450378 C177.60876744 48.25737985 179.68903578 48.81244888 181.77194214 49.3573761 C182.64585098 49.5950621 183.51975983 49.83274811 184.42015076 50.07763672 C185.15226273 50.2712529 185.88437469 50.46486908 186.63867188 50.66435242 C188.8910667 51.58727472 190.04234659 52.51165746 191.52732849 54.43823242 C192.47092168 62.93561406 189.98945599 71.01381125 187.94920349 79.19995117 C187.57707478 80.71957256 187.20552306 82.23933535 186.83451843 83.75923157 C186.05783279 86.93041842 185.27354632 90.09960175 184.48387146 93.26757812 C183.4756153 97.3154795 182.48764349 101.36801704 181.50542831 105.42230511 C180.74352538 108.55663256 179.97038573 111.68810591 179.19393158 114.81885719 C178.82518755 116.31182065 178.46001366 117.80567084 178.09857941 119.30042076 C177.59116361 121.39195751 177.0685491 123.47913372 176.54197693 125.56591797 C176.2488562 126.75122604 175.95573547 127.93653412 175.6537323 129.15776062 C173.94622382 134.13060728 171.44700899 138.22998723 167.05076599 141.19213867 C166.38947693 141.64717773 165.72818787 142.1022168 165.04685974 142.57104492 C164.33916443 143.0428418 163.63146912 143.51463867 162.90232849 144.00073242 C161.36769251 145.05297851 159.8338644 146.10640362 158.30076599 147.16088867 C157.51153748 147.69987793 156.72230896 148.23886719 155.90916443 148.79418945 C152.06881803 151.44495746 148.30024564 154.19275778 144.52732849 156.93823242 C137.84560938 161.78084643 131.14048716 166.58852557 124.37693787 171.31640625 C121.3952911 173.40095462 118.44959212 175.49765983 115.55857849 177.70776367 C111.40216595 180.85714416 107.56738422 183.72258456 102.22264099 183.98120117 C93.78204274 182.28084877 85.78772409 176.8845212 78.52732849 172.43823242 C78.15607849 173.26323242 77.78482849 174.08823242 77.40232849 174.93823242 C75.52732849 177.43823242 75.52732849 177.43823242 72.46482849 177.87573242 C69.52732849 177.43823242 69.52732849 177.43823242 67.52732849 175.43823242 C67.33201599 173.05541992 67.33201599 173.05541992 67.40232849 170.31323242 C67.42037537 169.4031543 67.43842224 168.49307617 67.45701599 167.55541992 C67.48021912 166.85674805 67.50342224 166.15807617 67.52732849 165.43823242 C66.75131287 165.22811523 65.97529724 165.01799805 65.17576599 164.80151367 C60.17972346 162.93468407 55.75831991 160.29596258 51.15232849 157.62573242 C42.99939344 152.95499725 34.8046748 148.38478 26.52732849 143.93823242 C18.64089431 139.69488383 10.81085993 135.36749434 3.02732849 130.93823242 C-5.1130528 126.30774264 -13.29948083 121.77214169 -21.53517151 117.31323242 C-22.54064026 116.76860352 -23.54610901 116.22397461 -24.58204651 115.6628418 C-29.17892791 113.18253266 -33.78018938 110.73303819 -38.47267151 108.43823242 C-39.13267151 110.08823242 -39.79267151 111.73823242 -40.47267151 113.43823242 C-43.34767151 113.56323242 -43.34767151 113.56323242 -46.47267151 113.43823242 C-48.92517012 110.98573381 -48.70610057 110.04263845 -49.01564026 106.67651367 C-49.59934106 103.51475362 -49.98153856 101.90561545 -52.33058167 99.67016602 C-54.75997932 98.16196401 -57.20996665 96.86834057 -59.78517151 95.62573242 C-73.63790766 88.53755771 -73.63790766 88.53755771 -76.47267151 80.43823242 C-76.98829651 79.69573242 -77.50392151 78.95323242 -78.03517151 78.18823242 C-79.98096065 74.46585319 -80.81911249 70.64824354 -80.47267151 66.43823242 C-79.97710754 65.84284668 -79.48154358 65.24746094 -78.97096252 64.6340332 C-77.09521594 61.88505736 -77.17348959 60.41577119 -77.32032776 57.12182617 C-77.3480426 56.11055664 -77.37575745 55.09928711 -77.40431213 54.05737305 C-77.49171884 51.93221596 -77.58287924 49.80721002 -77.67774963 47.68237305 C-77.70417542 46.67239258 -77.7306012 45.66241211 -77.75782776 44.62182617 C-77.79786926 43.69942139 -77.83791077 42.7770166 -77.87916565 41.82666016 C-77.47267151 39.43823242 -77.47267151 39.43823242 -75.79296875 37.88482666 C-73.16512499 36.24649189 -70.95687615 35.59874263 -67.94142151 34.90429688 C-66.27949768 34.5142321 -66.27949768 34.5142321 -64.58399963 34.11628723 C-63.39226135 33.84741196 -62.20052307 33.57853668 -60.97267151 33.30151367 C-59.13092346 32.87505806 -59.13092346 32.87505806 -57.25196838 32.43998718 C-54.65720514 31.84122817 -52.06192801 31.24623825 -49.46485901 30.65771484 C-46.14041288 29.90417644 -42.81899569 29.13819529 -39.49842834 28.36776447 C-36.32433989 27.63226987 -33.14850029 26.90445103 -29.97267151 26.17651367 C-28.78093323 25.9015657 -27.58919495 25.62661774 -26.36134338 25.34333801 C-24.69941956 24.96745796 -24.69941956 24.96745796 -23.00392151 24.58398438 C-22.03003479 24.36208939 -21.05614807 24.1401944 -20.05274963 23.91157532 C-17.47267151 23.43823242 -17.47267151 23.43823242 -13.47267151 23.43823242 C-13.39919495 22.16979492 -13.39919495 22.16979492 -13.32423401 20.87573242 C-11.94862186 0.00437568 -11.94862186 0.00437568 0 0 Z M-6.47267151 6.43823242 C-8.314411 12.08623354 -9.0204239 17.5233097 -9.47267151 23.43823242 C-8.26030823 23.89649414 -8.26030823 23.89649414 -7.02345276 24.36401367 C-4.47267151 26.43823242 -4.47267151 26.43823242 -3.96632385 28.37329102 C-3.75419578 30.79960265 -3.67712372 33.1902654 -3.66017151 35.62573242 C-3.63503479 36.47071289 -3.60989807 37.31569336 -3.58399963 38.1862793 C-3.52514416 40.26976292 -3.49604156 42.35404869 -3.47267151 44.43823242 C1.47732849 45.42823242 6.42732849 46.41823242 11.52732849 47.43823242 C10.50970659 38.27963528 9.39556264 29.1667066 7.96482849 20.06323242 C7.77473206 18.84253052 7.77473206 18.84253052 7.58079529 17.59716797 C7.07543063 14.44455979 6.53884024 11.47276766 5.52732849 8.43823242 C1.45265124 6.94940804 -2.13808566 6.17553025 -6.47267151 6.43823242 Z M44.52732849 6.43823242 C45.01374064 13.28640344 45.88726801 19.76865315 47.52732849 26.43823242 C48.84732849 26.76823242 50.16732849 27.09823242 51.52732849 27.43823242 C50.53732849 20.83823242 49.54732849 14.23823242 48.52732849 7.43823242 C47.20732849 7.10823242 45.88732849 6.77823242 44.52732849 6.43823242 Z M50.52732849 8.43823242 C51.52732849 12.43823242 51.52732849 12.43823242 51.52732849 12.43823242 Z M8.52732849 10.43823242 C11.04295016 30.13087865 14.16930897 49.72979824 17.25291443 69.33959961 C18.00995405 74.15396766 18.76333261 78.96890051 19.51566505 83.78400612 C20.09938426 87.51763917 20.68486526 91.25099425 21.27090073 94.98426437 C21.54970671 96.76158961 21.82799465 98.5389962 22.10574722 100.31648636 C22.49140562 102.78264432 22.87940657 105.24842244 23.26805115 107.71411133 C23.38130234 108.44127853 23.49455353 109.16844574 23.61123657 109.91764832 C23.9029793 111.7600516 24.21402507 113.59937281 24.52732849 115.43823242 C24.65642609 116.23691742 24.78552368 117.03560242 24.91853333 117.85848999 C25.11943573 118.37980499 25.32033813 118.90112 25.52732849 119.43823242 C27.01232849 119.93323242 27.01232849 119.93323242 28.52732849 120.43823242 C27.13766582 107.88750398 25.40360809 95.40845087 23.52342224 82.92260742 C23.2370169 81.00835048 22.95081171 79.09406357 22.66479492 77.17974854 C22.07055898 73.2062552 21.47458104 69.23302875 20.87718201 65.26000977 C20.11235488 60.17316077 19.35100003 55.08579961 18.5908041 49.99825668 C18.00245275 46.06218441 17.4127981 42.12630832 16.82269478 38.19049835 C16.54133203 36.31348179 16.26025569 34.43642227 15.97947502 32.55931854 C15.58839163 29.94682685 15.19567482 27.33458599 14.80247498 24.72241211 C14.63024162 23.56916695 14.63024162 23.56916695 14.45452881 22.3926239 C13.89994448 18.71999781 13.29783563 15.07210576 12.52732849 11.43823242 C11.20732849 11.10823242 9.88732849 10.77823242 8.52732849 10.43823242 Z M14.52732849 12.43823242 C15.52732849 16.43823242 15.52732849 16.43823242 15.52732849 16.43823242 Z M17.52732849 12.43823242 C18.51732849 18.70823242 19.50732849 24.97823242 20.52732849 31.43823242 C28.30072843 30.10857191 35.89873567 28.43524625 43.52732849 26.43823242 C44.52949913 22.85495489 44.52949913 22.85495489 43.52732849 19.43823242 C41.14928263 18.49624546 41.14928263 18.49624546 38.24998474 17.71166992 C37.17941833 17.40229492 36.10885193 17.09291992 35.00584412 16.77416992 C33.87855896 16.45706055 32.7512738 16.13995117 31.58982849 15.81323242 C30.46641052 15.48838867 29.34299255 15.16354492 28.18553162 14.82885742 C22.937513 13.13248914 22.937513 13.13248914 17.52732849 12.43823242 Z M36.52732849 14.43823242 C40.52732849 15.43823242 40.52732849 15.43823242 40.52732849 15.43823242 Z M51.52732849 15.43823242 C52.52732849 18.43823242 52.52732849 18.43823242 52.52732849 18.43823242 Z M15.52732849 19.43823242 C16.52732849 23.43823242 16.52732849 23.43823242 16.52732849 23.43823242 Z M61.52732849 21.43823242 C65.52732849 22.43823242 65.52732849 22.43823242 65.52732849 22.43823242 Z M52.52732849 22.43823242 C53.52732849 25.43823242 53.52732849 25.43823242 53.52732849 25.43823242 Z M55.52732849 23.43823242 C55.81075528 25.83529941 56.10376538 28.23054325 56.40232849 30.62573242 C56.4809613 31.29926758 56.55959412 31.97280273 56.64060974 32.66674805 C57.13553915 36.56907608 58.05623388 39.81350831 59.52732849 43.43823242 C59.19732849 44.09823242 58.86732849 44.75823242 58.52732849 45.43823242 C58.1463687 67.85303413 58.1463687 67.85303413 65.81278992 88.08642578 C71.9657479 93.77082441 80.62426866 95.68185289 88.59739685 97.35742188 C91.57372292 98.05824407 94.01709397 99.12615667 96.70921326 100.57177734 C104.50405579 104.70332181 104.50405579 104.70332181 113.10380554 104.95568848 C119.83660892 102.68787199 125.86584919 99.0860871 131.96482849 95.50073242 C133.82942353 94.46816084 135.69725532 93.44141159 137.56834412 92.4206543 C143.32148486 89.25638646 149.06196357 86.08180904 154.52732849 82.43823242 C156.72654724 82.39135742 156.72654724 82.39135742 159.21482849 82.68823242 C160.02307068 82.77588867 160.83131287 82.86354492 161.66404724 82.95385742 C165.3265909 83.57344189 168.92365573 84.53731423 172.52732849 85.43823242 C175.49732849 72.07323242 175.49732849 72.07323242 178.52732849 58.43823242 C164.23400048 53.84854758 149.87126577 49.60466286 135.42967224 45.50854492 C133.17470685 44.86709829 130.91978933 44.22548339 128.66491699 43.58370972 C123.98536368 42.25250642 119.30526151 40.92325607 114.6247406 39.59545898 C108.61695858 37.89097136 102.6105895 36.18156235 96.60460567 34.47075081 C91.97022296 33.15119835 87.33513184 31.83414905 82.69981575 30.51787949 C80.48233341 29.88787243 78.26507128 29.25708974 76.04803276 28.62552261 C72.97145348 27.74951063 69.89394186 26.87685639 66.81614685 26.00512695 C65.89941193 25.74338181 64.982677 25.48163666 64.03816223 25.21195984 C62.78785973 24.85895058 62.78785973 24.85895058 61.51229858 24.49880981 C60.78663665 24.29274675 60.06097471 24.08668369 59.31332302 23.8743763 C57.50992359 23.3591554 57.50992359 23.3591554 55.52732849 23.43823242 Z M68.52732849 23.43823242 C72.52732849 24.43823242 72.52732849 24.43823242 72.52732849 24.43823242 Z M16.52732849 25.43823242 C17.52732849 29.43823242 17.52732849 29.43823242 17.52732849 29.43823242 Z M75.52732849 25.43823242 C79.52732849 26.43823242 79.52732849 26.43823242 79.52732849 26.43823242 Z M82.52732849 27.43823242 C86.52732849 28.43823242 86.52732849 28.43823242 86.52732849 28.43823242 Z M86.52732849 28.43823242 C89.24282003 30.74495158 89.24282003 30.74495158 91.71482849 30.06323242 C92.31295349 29.85698242 92.91107849 29.65073242 93.52732849 29.43823242 C91.21732849 29.10823242 88.90732849 28.77823242 86.52732849 28.43823242 Z M-15.74440002 30.59985352 C-17.32107201 30.9805751 -17.32107201 30.9805751 -18.92959595 31.36898804 C-20.62347694 31.78611557 -20.62347694 31.78611557 -22.35157776 32.21166992 C-24.09700111 32.63737778 -24.09700111 32.63737778 -25.87768555 33.07168579 C-28.33691957 33.67298653 -30.7955707 34.2766755 -33.25367737 34.88256836 C-37.02207034 35.81000809 -40.7930932 36.72613036 -44.56446838 37.64135742 C-46.95200595 38.22661093 -49.33938143 38.81252612 -51.72657776 39.39916992 C-52.85785599 39.67320648 -53.98913422 39.94724304 -55.1546936 40.22958374 C-56.2026561 40.48970245 -57.25061859 40.74982117 -58.33033752 41.01782227 C-59.25315018 41.24432465 -60.17596283 41.47082703 -61.1267395 41.70419312 C-63.70530157 42.39043116 -63.70530157 42.39043116 -66.47267151 44.43823242 C-66.798611 49.32732478 -66.32747329 53.61273847 -65.47267151 58.43823242 C-62.59698924 57.44016482 -59.72219354 56.43963233 -56.84767151 55.43823242 C-55.95846008 55.13006592 -55.06924866 54.82189941 -54.15309143 54.50439453 C-49.26234024 52.79998373 -44.39926705 51.04466506 -39.56251526 49.19213867 C-38.59716858 48.82668945 -37.6318219 48.46124023 -36.63722229 48.0847168 C-34.77807101 47.37810563 -32.92327768 46.65988624 -31.07374573 45.9284668 C-22.55856778 42.7139911 -15.3441322 43.14783814 -6.47267151 44.43823242 C-6.47267151 39.48823242 -6.47267151 34.53823242 -6.47267151 29.43823242 C-9.95210218 29.43823242 -12.41239879 29.78846581 -15.74440002 30.59985352 Z M53.52732849 29.43823242 C54.52732849 32.43823242 54.52732849 32.43823242 54.52732849 32.43823242 Z M34.52732849 30.43823242 C38.52732849 31.43823242 38.52732849 31.43823242 38.52732849 31.43823242 Z M93.52732849 30.43823242 C96.24282003 32.74495158 96.24282003 32.74495158 98.71482849 32.06323242 C99.31295349 31.85698242 99.91107849 31.65073242 100.52732849 31.43823242 C98.21732849 31.10823242 95.90732849 30.77823242 93.52732849 30.43823242 Z M30.52732849 31.43823242 C34.52732849 32.43823242 34.52732849 32.43823242 34.52732849 32.43823242 Z M17.52732849 32.43823242 C18.52732849 36.43823242 18.52732849 36.43823242 18.52732849 36.43823242 Z M26.52732849 32.43823242 C30.52732849 33.43823242 30.52732849 33.43823242 30.52732849 33.43823242 Z M49.52732849 32.43823242 C48.25909364 36.09216779 48.77017528 38.92893268 49.46482849 42.68823242 C49.75680115 44.3047168 49.75680115 44.3047168 50.05467224 45.95385742 C50.2106488 46.77370117 50.36662537 47.59354492 50.52732849 48.43823242 C51.84732849 48.76823242 53.16732849 49.09823242 54.52732849 49.43823242 C53.86732849 43.82823242 53.20732849 38.21823242 52.52732849 32.43823242 C51.53732849 32.43823242 50.54732849 32.43823242 49.52732849 32.43823242 Z M100.52732849 32.43823242 C103.79553064 34.61703386 106.89898667 35.54504983 110.62913513 36.57714844 C111.34812485 36.78065918 112.06711456 36.98416992 112.80789185 37.19384766 C115.1830625 37.86487965 117.56025394 38.52844575 119.93748474 39.19213867 C121.58765115 39.65718819 123.23766861 40.12276651 124.88754272 40.58885193 C129.23053333 41.81448602 133.57519641 43.03407695 137.92033386 44.2520752 C144.87957025 46.20378641 151.83640957 48.16401281 158.79292107 50.12541008 C161.22643876 50.81050985 163.66076573 51.49267211 166.09521484 52.17445374 C167.581803 52.59246488 169.06837127 53.01054674 170.55491638 53.42871094 C171.23496735 53.61833908 171.91501831 53.80796722 172.61567688 54.00334167 C177.30032909 55.32473272 177.30032909 55.32473272 179.52732849 56.43823242 C179.82166926 67.54290675 179.30519631 79.66964995 173.52732849 89.43823242 C167.07810261 95.42114488 158.78118771 98.65910964 150.76463318 102.03295898 C146.29400816 103.97360134 142.11539666 106.31166217 137.90232849 108.75073242 C136.49483387 109.54611182 135.08600479 110.33913501 133.67576599 111.12963867 C132.66014587 111.70029053 132.66014587 111.70029053 131.62400818 112.2824707 C129.41268786 113.50142627 127.18056296 114.6736504 124.94139099 115.84057617 C124.19969666 116.235271 123.45800232 116.62996582 122.6938324 117.03662109 C121.29531361 117.78000774 119.88909656 118.50916974 118.47410583 119.22070312 C115.58114704 120.778133 113.78714287 121.84712251 112.4438324 124.90332031 C111.21839247 129.629784 110.49893225 134.37081604 109.80076599 139.19995117 C109.64822357 140.22756058 109.49568115 141.25516998 109.33851624 142.31391907 C109.01836931 144.47778377 108.7008247 146.64203491 108.38572693 148.80664062 C107.90236387 152.1254895 107.41084518 155.44305226 106.91795349 158.76049805 C106.60758087 160.8652455 106.29766904 162.97006097 105.98826599 165.07495117 C105.76800247 166.56559334 105.76800247 166.56559334 105.54328918 168.08634949 C105.4095993 169.00773209 105.27590942 169.92911469 105.13816833 170.87841797 C105.0198465 171.68860886 104.90152466 172.49879974 104.77961731 173.33354187 C104.46781961 175.58138556 104.46781961 175.58138556 104.52732849 178.43823242 C109.60812961 176.81117823 113.47984364 173.76074494 117.71482849 170.62573242 C119.33193679 169.44333243 120.94912657 168.26104386 122.56639099 167.07885742 C123.39042419 166.47364258 124.2144574 165.86842773 125.0634613 165.24487305 C128.89258443 162.43715296 132.74026984 159.65533711 136.58982849 156.87573242 C137.69282288 156.0786084 137.69282288 156.0786084 138.81809998 155.26538086 C144.11800901 151.44066833 149.43950848 147.6473413 154.77732849 143.87573242 C155.46834656 143.38709717 156.15936462 142.89846191 156.87132263 142.39501953 C157.52608582 141.93361572 158.180849 141.47221191 158.85545349 140.99682617 C159.47742615 140.55322754 160.0993988 140.10962891 160.74021912 139.65258789 C162.37538643 138.5414783 164.09787338 137.56177905 165.82420349 136.59838867 C172.4123464 131.33358661 173.36402579 119.71112925 175.32029724 111.86791992 C175.67452921 110.45878042 176.02896909 109.04969317 176.38360596 107.64065552 C177.12212866 104.70141255 177.85704444 101.76129613 178.58958435 98.82055664 C179.52639154 95.06170321 180.47391164 91.3056433 181.42434216 87.55021477 C182.1576257 84.64659514 182.88435784 81.74136538 183.60923195 78.83563614 C183.95587873 77.4500719 184.30473435 76.06505824 184.65588951 74.68062973 C185.14609473 72.74459939 185.62634057 70.80605566 186.10618591 68.86743164 C186.38137558 67.76793182 186.65656525 66.66843201 186.94009399 65.53561401 C187.52973328 62.4255483 187.63525926 59.59538818 187.52732849 56.43823242 C182.33854338 54.43432183 177.1581747 52.66298972 171.7978363 51.16992188 C171.07157547 50.96465881 170.34531464 50.75939575 169.5970459 50.5479126 C167.22584434 49.87884771 164.85324241 49.21492523 162.48045349 48.55151367 C160.81990739 48.08513278 159.15940599 47.61859271 157.49894714 47.15190125 C154.03332369 46.17879268 150.56695861 45.20838158 147.1000824 44.23974609 C142.65758775 42.99817108 138.21737264 41.74864774 133.77771378 40.4969759 C130.355824 39.53340349 126.93260463 38.57462643 123.5089798 37.617239 C121.87066565 37.15835295 120.23280777 36.69783463 118.59542084 36.23565102 C116.31138401 35.59158279 114.02559837 34.95413849 111.73924255 34.31835938 C111.06488663 34.126707 110.3905307 33.93505463 109.69573975 33.7375946 C106.46015873 32.8452884 103.92575793 32.43823242 100.52732849 32.43823242 Z M22.52732849 33.43823242 C26.52732849 34.43823242 26.52732849 34.43823242 26.52732849 34.43823242 Z M38.01560974 35.49682617 C37.17578552 35.71790039 36.3359613 35.93897461 35.47068787 36.16674805 C34.16841248 36.51769531 34.16841248 36.51769531 32.83982849 36.87573242 C31.96004333 37.10583008 31.08025818 37.33592773 30.17381287 37.57299805 C26.02648924 38.38350972 26.02648924 38.38350972 22.52732849 40.43823242 C22.18876021 45.76496278 22.18876021 45.76496278 24.52732849 50.43823242 C31.1195807 53.54046875 36.05368527 51.67064307 42.59837341 49.3190918 C44.24678368 48.70654496 45.88787885 48.07437304 47.52732849 47.43823242 C47.73703408 43.29729544 47.73703408 43.29729544 46.52732849 39.43823242 C45.53732849 39.43823242 44.54732849 39.43823242 43.52732849 39.43823242 C43.52732849 38.11823242 43.52732849 36.79823242 43.52732849 35.43823242 C44.51732849 35.10823242 45.50732849 34.77823242 46.52732849 34.43823242 C43.2341599 34.43823242 41.11434981 34.67805207 38.01560974 35.49682617 Z M54.52732849 36.43823242 C55.52732849 39.43823242 55.52732849 39.43823242 55.52732849 39.43823242 Z M-63.47267151 38.43823242 C-59.47267151 39.43823242 -59.47267151 39.43823242 -59.47267151 39.43823242 Z M18.52732849 38.43823242 C18.52732849 40.08823242 18.52732849 41.73823242 18.52732849 43.43823242 C18.85732849 43.43823242 19.18732849 43.43823242 19.52732849 43.43823242 C19.52732849 41.78823242 19.52732849 40.13823242 19.52732849 38.43823242 C19.19732849 38.43823242 18.86732849 38.43823242 18.52732849 38.43823242 Z M-71.47267151 41.43823242 C-67.84940412 42.64598822 -66.83120782 41.9813437 -63.47267151 40.43823242 C-66.8752164 39.22303782 -68.40518276 39.57582854 -71.47267151 41.43823242 Z M55.52732849 42.43823242 C56.52732849 45.43823242 56.52732849 45.43823242 56.52732849 45.43823242 Z M-73.47267151 43.43823242 C-73.14267151 49.04823242 -72.81267151 54.65823242 -72.47267151 60.43823242 C-71.15267151 60.10823242 -69.83267151 59.77823242 -68.47267151 59.43823242 C-68.37015479 54.31239631 -68.43676952 49.48825464 -69.47267151 44.43823242 C-70.79267151 44.10823242 -72.11267151 43.77823242 -73.47267151 43.43823242 Z M-33.57423401 48.83276367 C-34.49554108 49.18078537 -35.41684814 49.52880707 -36.36607361 49.88737488 C-39.28273922 50.99313522 -42.19007503 52.12136938 -45.09767151 53.25073242 C-47.05542616 53.99769361 -49.0137557 54.74314985 -50.97267151 55.48706055 C-54.57738887 56.85841418 -58.17859736 58.23820729 -61.77589417 59.62890625 C-65.99784993 61.26025663 -70.23201269 62.85616636 -74.47267151 64.43823242 C-73.65808613 66.62591782 -73.65808613 66.62591782 -71.45231628 67.22801208 C-70.56394073 67.48099564 -69.67556519 67.73397919 -68.76026917 67.99462891 C-67.7547702 68.28510605 -66.74927124 68.57558319 -65.71330261 68.87486267 C-64.06665115 69.3374221 -64.06665115 69.3374221 -62.38673401 69.80932617 C-61.26004303 70.13232193 -60.13335205 70.45531769 -58.97251892 70.7881012 C-55.34963391 71.82470576 -51.72371838 72.85024929 -48.09767151 73.87573242 C-45.68991754 74.56317676 -43.28236281 75.25131933 -40.87501526 75.94018555 C-34.41126833 77.78621921 -27.94485284 79.62199388 -21.47267151 81.43823242 C-19.93505661 81.87736214 -19.93505661 81.87736214 -18.36637878 82.32536316 C-17.3859964 82.60124771 -16.40561401 82.87713226 -15.39552307 83.16137695 C-14.08747711 83.53276291 -14.08747711 83.53276291 -12.75300598 83.91165161 C-6.57902336 85.33736385 -1.66033107 82.28519685 3.65232849 79.50073242 C4.35486755 79.14043945 5.05740662 78.78014648 5.78123474 78.40893555 C7.12047362 77.72159461 8.45814604 77.03118948 9.79393005 76.3371582 C11.6953892 75.35107756 13.60756609 74.38816667 15.52732849 73.43823242 C14.94726612 65.68371436 13.90292265 58.09080965 12.52732849 50.43823242 C-10.64441839 44.63399524 -10.64441839 44.63399524 -33.57423401 48.83276367 Z M19.52732849 45.43823242 C20.52732849 49.43823242 20.52732849 49.43823242 20.52732849 49.43823242 Z M56.52732849 49.43823242 C57.52732849 52.43823242 57.52732849 52.43823242 57.52732849 52.43823242 Z M20.52732849 51.43823242 C20.52732849 53.08823242 20.52732849 54.73823242 20.52732849 56.43823242 C20.85732849 56.43823242 21.18732849 56.43823242 21.52732849 56.43823242 C21.52732849 54.78823242 21.52732849 53.13823242 21.52732849 51.43823242 C21.19732849 51.43823242 20.86732849 51.43823242 20.52732849 51.43823242 Z M35.52732849 54.43823242 C38.99232849 53.94323242 38.99232849 53.94323242 42.52732849 53.43823242 C39.04150993 52.23622602 38.84740505 52.22484805 35.52732849 54.43823242 Z M52.52732849 54.43823242 C51.33606069 58.01203584 51.79238399 59.94706544 52.46482849 63.62573242 C52.65947693 64.71241211 52.85412537 65.7990918 53.05467224 66.91870117 C53.2106488 67.75014648 53.36662537 68.5815918 53.52732849 69.43823242 C54.84732849 69.76823242 56.16732849 70.09823242 57.52732849 70.43823242 C56.86732849 65.15823242 56.20732849 59.87823242 55.52732849 54.43823242 C54.53732849 54.43823242 53.54732849 54.43823242 52.52732849 54.43823242 Z M24.52732849 57.43823242 C26.65672677 58.78850019 26.65672677 58.78850019 29.65232849 57.50073242 C31.07545349 56.97479492 31.07545349 56.97479492 32.52732849 56.43823242 C29.1247836 55.22303782 27.59481724 55.57582854 24.52732849 57.43823242 Z M46.52732849 56.43823242 C46.85732849 58.74823242 47.18732849 61.05823242 47.52732849 63.43823242 C48.51732849 63.76823242 49.50732849 64.09823242 50.52732849 64.43823242 C50.19732849 61.79823242 49.86732849 59.15823242 49.52732849 56.43823242 C48.53732849 56.43823242 47.54732849 56.43823242 46.52732849 56.43823242 Z M57.52732849 56.43823242 C58.52732849 59.43823242 58.52732849 59.43823242 58.52732849 59.43823242 Z M21.52732849 58.43823242 C22.52732849 62.43823242 22.52732849 62.43823242 22.52732849 62.43823242 Z M32.33982849 60.87573242 C31.68562927 61.1187207 31.03143005 61.36170898 30.35740662 61.61206055 C28.74429563 62.21256172 27.135385 62.82432446 25.52732849 63.43823242 C25.85732849 64.75823242 26.18732849 66.07823242 26.52732849 67.43823242 C31.80732849 64.79823242 37.08732849 62.15823242 42.52732849 59.43823242 C38.54487198 58.11074692 36.07943306 59.43915414 32.33982849 60.87573242 Z M39.71092224 63.40698242 C38.94715271 63.81303711 38.18338318 64.2190918 37.39646912 64.63745117 C36.19280701 65.28133789 36.19280701 65.28133789 34.96482849 65.93823242 C34.1585199 66.36749023 33.3522113 66.79674805 32.52146912 67.23901367 C30.52243618 68.30358743 28.5244468 69.37007242 26.52732849 70.43823242 C26.85732849 72.74823242 27.18732849 75.05823242 27.52732849 77.43823242 C33.63470291 75.6736017 39.60166356 73.74265767 45.52732849 71.43823242 C45.03232849 66.48823242 45.03232849 66.48823242 44.52732849 61.43823242 C42.7393857 61.43823242 41.25953882 62.58105358 39.71092224 63.40698242 Z M58.52732849 63.43823242 C59.52732849 66.43823242 59.52732849 66.43823242 59.52732849 66.43823242 Z M22.52732849 64.43823242 C22.52732849 66.08823242 22.52732849 67.73823242 22.52732849 69.43823242 C22.85732849 69.43823242 23.18732849 69.43823242 23.52732849 69.43823242 C23.52732849 67.78823242 23.52732849 66.13823242 23.52732849 64.43823242 C23.19732849 64.43823242 22.86732849 64.43823242 22.52732849 64.43823242 Z M47.52732849 66.43823242 C47.85732849 67.75823242 48.18732849 69.07823242 48.52732849 70.43823242 C49.51732849 69.77823242 50.50732849 69.11823242 51.52732849 68.43823242 C50.20732849 67.77823242 48.88732849 67.11823242 47.52732849 66.43823242 Z M-77.47267151 68.43823242 C-77.31866251 71.71442387 -76.82985654 74.43958804 -75.47267151 77.43823242 C-73.5643913 78.72720191 -73.5643913 78.72720191 -71.16383362 79.46459961 C-69.80897354 79.95059631 -69.80897354 79.95059631 -68.42674255 80.44641113 C-67.45189911 80.77371216 -66.47705566 81.10101318 -65.47267151 81.43823242 C-64.00593491 81.95190369 -64.00593491 81.95190369 -62.50956726 82.47595215 C-59.27712742 83.59699994 -56.03508117 84.68523664 -52.78907776 85.76635742 C-51.61175583 86.16022644 -50.4344339 86.55409546 -49.22143555 86.9598999 C-46.75205918 87.78492822 -44.28216652 88.60841272 -41.81178284 89.43041992 C-39.28056743 90.27344932 -36.75014246 91.11845266 -34.22096252 91.9675293 C-30.55768943 93.19674884 -26.89245187 94.41991975 -23.22657776 95.64135742 C-22.09224808 96.02253723 -20.9579184 96.40371704 -19.78921509 96.79644775 C-18.74059799 97.14391052 -17.6919809 97.49137329 -16.61158752 97.84936523 C-15.68910721 98.15706848 -14.76662689 98.46477173 -13.81619263 98.78179932 C-11.39682278 99.57309448 -11.39682278 99.57309448 -8.47267151 99.43823242 C-8.96767151 93.49823242 -8.96767151 93.49823242 -9.47267151 87.43823242 C-16.3945329 84.68788378 -23.44805091 82.65015377 -30.61720276 80.64526367 C-31.86394272 80.2943718 -33.11068268 79.94347992 -34.39520264 79.58195496 C-37.01763738 78.84433426 -39.64076749 78.10925512 -42.26441956 77.37597656 C-45.62611353 76.43617124 -48.98587428 75.48965021 -52.34514332 74.54121876 C-55.55978626 73.63467063 -58.77606426 72.7339918 -61.99220276 71.83276367 C-63.19842789 71.49219437 -64.40465302 71.15162506 -65.64743042 70.80073547 C-66.76256516 70.49008652 -67.87769989 70.17943756 -69.02662659 69.859375 C-70.49933769 69.4465905 -70.49933769 69.4465905 -72.00180054 69.02546692 C-74.53583955 68.32262117 -74.53583955 68.32262117 -77.47267151 68.43823242 Z M59.52732849 70.43823242 C60.52732849 72.43823242 60.52732849 72.43823242 60.52732849 72.43823242 Z M23.52732849 71.43823242 C23.52732849 73.08823242 23.52732849 74.73823242 23.52732849 76.43823242 C23.85732849 76.43823242 24.18732849 76.43823242 24.52732849 76.43823242 C24.52732849 74.78823242 24.52732849 73.13823242 24.52732849 71.43823242 C24.19732849 71.43823242 23.86732849 71.43823242 23.52732849 71.43823242 Z M43.52732849 74.43823242 C47.15059588 75.64598822 48.16879218 74.9813437 51.52732849 73.43823242 C47.9040611 72.23047662 46.8858648 72.89512114 43.52732849 74.43823242 Z M34.90232849 77.25073242 C33.92006287 77.60780273 32.93779724 77.96487305 31.92576599 78.33276367 C29.38571542 79.2005433 29.38571542 79.2005433 28.52732849 81.43823242 C36.13550695 79.25210101 36.13550695 79.25210101 43.52732849 76.43823242 C39.78954494 75.19230457 38.53631519 75.89398013 34.90232849 77.25073242 Z M10.61717224 78.06323242 C9.62781677 78.60463867 8.6384613 79.14604492 7.61912537 79.70385742 C6.5782074 80.27620117 5.53728943 80.84854492 4.46482849 81.43823242 C2.89765076 82.29674805 2.89765076 82.29674805 1.29881287 83.17260742 C-1.2927105 84.59262023 -3.88314745 86.01457791 -6.47267151 87.43823242 C-6.49979217 88.87562755 -6.51912218 90.31317105 -6.53517151 91.75073242 C-6.54677307 92.55124023 -6.55837463 93.35174805 -6.57032776 94.17651367 C-6.56925005 96.60684576 -6.56925005 96.60684576 -5.47267151 99.43823242 C-0.39632324 97.63928212 4.1644646 94.94796787 8.83982849 92.31323242 C10.09376404 91.61133789 10.09376404 91.61133789 11.37303162 90.89526367 C13.42597552 89.74561508 15.47685832 88.59228729 17.52732849 87.43823242 C17.19732849 83.47823242 16.86732849 79.51823242 16.52732849 75.43823242 C14.45702491 75.43823242 12.36522206 77.10430223 10.61717224 78.06323242 Z M57.52732849 75.43823242 C56.53732849 75.93323242 56.53732849 75.93323242 55.52732849 76.43823242 C55.85732849 81.05823242 56.18732849 85.67823242 56.52732849 90.43823242 C58.50732849 90.93323242 58.50732849 90.93323242 60.52732849 91.43823242 C60.41277168 89.52091324 60.28526591 87.60436492 60.15232849 85.68823242 C60.08271912 84.62088867 60.01310974 83.55354492 59.94139099 82.45385742 C59.55450619 79.6361681 58.97046683 77.85519582 57.52732849 75.43823242 Z M24.52732849 77.43823242 C24.52732849 79.08823242 24.52732849 80.73823242 24.52732849 82.43823242 C24.85732849 82.43823242 25.18732849 82.43823242 25.52732849 82.43823242 C25.52732849 80.78823242 25.52732849 79.13823242 25.52732849 77.43823242 C25.19732849 77.43823242 24.86732849 77.43823242 24.52732849 77.43823242 Z M60.52732849 77.43823242 C61.52732849 79.43823242 61.52732849 79.43823242 61.52732849 79.43823242 Z M44.85935974 80.18823242 C43.52034607 80.72963867 43.52034607 80.72963867 42.15428162 81.28198242 C40.76112732 81.85432617 40.76112732 81.85432617 39.33982849 82.43823242 C38.3994574 82.81979492 37.4590863 83.20135742 36.49021912 83.59448242 C34.16733163 84.53778698 31.8465111 85.48586365 29.52732849 86.43823242 C29.25800328 91.08876114 29.25800328 91.08876114 30.52732849 95.43823242 C35.58218776 94.70728536 40.12636028 92.75442338 44.83982849 90.87573242 C45.67578552 90.54637695 46.51174255 90.21702148 47.37303162 89.87768555 C49.4259348 89.06825515 51.47683414 88.25374575 53.52732849 87.43823242 C53.19732849 84.46823242 52.86732849 81.49823242 52.52732849 78.43823242 C49.37945804 78.43823242 47.7435502 79.01251147 44.85935974 80.18823242 Z M-69.47267151 83.43823242 C-68.48267151 84.42823242 -67.49267151 85.41823242 -66.47267151 86.43823242 C-66.47267151 85.44823242 -66.47267151 84.45823242 -66.47267151 83.43823242 C-67.46267151 83.43823242 -68.45267151 83.43823242 -69.47267151 83.43823242 Z M25.52732849 84.43823242 C25.52732849 86.08823242 25.52732849 87.73823242 25.52732849 89.43823242 C25.85732849 89.43823242 26.18732849 89.43823242 26.52732849 89.43823242 C26.52732849 87.78823242 26.52732849 86.13823242 26.52732849 84.43823242 C26.19732849 84.43823242 25.86732849 84.43823242 25.52732849 84.43823242 Z M61.52732849 84.43823242 C62.52732849 86.43823242 62.52732849 86.43823242 62.52732849 86.43823242 Z M147.40232849 88.56323242 C145.71295578 89.4786461 144.02280325 90.39262159 142.33201599 91.30541992 C141.4113031 91.80525391 140.49059021 92.30508789 139.54197693 92.82006836 C133.90651014 95.84500146 128.2123571 98.75787775 122.52732849 101.68823242 C114.47217018 105.84151051 106.46320965 110.06077493 98.52732849 114.43823242 C98.52732849 115.09823242 98.52732849 115.75823242 98.52732849 116.43823242 C100.25023454 117.14127464 101.98100316 117.82506733 103.71482849 118.50073242 C105.15922302 119.07500977 105.15922302 119.07500977 106.63279724 119.66088867 C111.84715965 121.06123701 115.42613802 119.15786613 119.97264099 116.58666992 C121.57015198 115.69057007 121.57015198 115.69057007 123.19993591 114.77636719 C124.33922546 114.12853271 125.47851501 113.48069824 126.65232849 112.81323242 C127.83983327 112.14446775 129.02774676 111.47642835 130.21604919 110.80908203 C132.70533506 109.41040577 135.19279744 108.00855957 137.67918396 106.60473633 C143.40498655 103.37607306 149.15552629 100.19191715 154.90446472 97.00469971 C157.79403585 95.40224006 160.68210097 93.79707493 163.57029724 92.19213867 C165.22264099 91.27416992 166.87498474 90.35620117 168.52732849 89.43823242 C168.52732849 88.77823242 168.52732849 88.11823242 168.52732849 87.43823242 C167.31045349 86.94323242 166.09357849 86.44823242 164.83982849 85.93823242 C163.81309021 85.52057617 163.81309021 85.52057617 162.76560974 85.09448242 C156.52741464 83.26548281 152.78871043 85.5659715 147.40232849 88.56323242 Z M-63.47267151 85.43823242 C-63.3882784 87.34102212 -63.3882784 87.34102212 -62.47267151 89.43823242 C-60.06765873 91.24278625 -60.06765873 91.24278625 -56.98048401 92.80151367 C-56.41203766 93.10997726 -55.84359131 93.41844086 -55.25791931 93.73625183 C-53.37748571 94.75332645 -51.48773373 95.75168265 -49.59767151 96.75073242 C-48.27462571 97.46282646 -46.95236955 98.1763894 -45.63087463 98.89135742 C-42.90800457 100.36343606 -40.18213362 101.82971958 -37.45411682 103.29223633 C-31.59109411 106.44309446 -25.78368694 109.69263103 -19.97267151 112.93823242 C-10.65066248 118.12555655 -1.3156794 123.28887618 8.02732849 128.43823242 C18.47008244 134.19370869 28.89928761 139.97298215 39.31932068 145.76953125 C49.19076724 151.25810785 59.07978168 156.71456764 68.97459412 162.16088867 C70.12121521 162.7925293 71.2678363 163.42416992 72.44920349 164.07495117 C73.51332458 164.66066895 74.57744568 165.24638672 75.67381287 165.84985352 C78.04482878 167.16965413 80.39128655 168.5203105 82.73045349 169.89526367 C85.2868179 171.59924743 85.2868179 171.59924743 87.52732849 171.43823242 C88.18732849 167.14823242 88.84732849 162.85823242 89.52732849 158.43823242 C78.34258116 152.4463398 67.06086013 146.66047326 55.70701599 140.99682617 C55.05068428 140.66938038 54.39435257 140.34193459 53.71813202 140.00456619 C48.94761584 137.62543715 44.17516946 135.25019337 39.40232849 132.87573242 C33.96094901 130.16865173 28.52033386 127.46005312 23.08201599 124.74682617 C22.43206665 124.42259108 21.78211731 124.09835598 21.11247253 123.76429558 C12.31891414 119.37388294 3.57169163 114.90912195 -5.08253479 110.2487793 C-10.0648906 107.58788698 -15.10014482 105.03385376 -20.17189026 102.54760742 C-22.44159078 101.43491491 -24.71023746 100.32049242 -26.97511292 99.19799805 C-44.43519498 89.65989151 -44.43519498 89.65989151 -63.47267151 85.43823242 Z M9.40232849 94.43823242 C8.74361755 94.81979492 8.08490662 95.20135742 7.40623474 95.59448242 C5.77770101 96.53855995 4.15222192 97.4879031 2.52732849 98.43823242 C2.3176229 102.57916941 2.3176229 102.57916941 3.52732849 106.43823242 C7.15348691 105.81213313 10.37125217 104.82513775 13.77732849 103.43823242 C14.64873474 103.08760742 15.52014099 102.73698242 16.41795349 102.37573242 C18.47067711 101.6145435 18.47067711 101.6145435 19.52732849 100.43823242 C19.43769787 98.74681587 19.28155173 97.0586364 19.08982849 95.37573242 C18.98799255 94.45663086 18.88615662 93.5375293 18.78123474 92.59057617 C18.65555115 91.52516602 18.65555115 91.52516602 18.52732849 90.43823242 C15.08497732 90.43823242 12.30972908 92.73409267 9.40232849 94.43823242 Z M26.52732849 90.43823242 C26.52732849 92.41823242 26.52732849 94.39823242 26.52732849 96.43823242 C26.85732849 96.43823242 27.18732849 96.43823242 27.52732849 96.43823242 C27.52732849 94.45823242 27.52732849 92.47823242 27.52732849 90.43823242 C27.19732849 90.43823242 26.86732849 90.43823242 26.52732849 90.43823242 Z M48.42185974 94.30932617 C46.94749451 94.92324219 46.94749451 94.92324219 45.44334412 95.54956055 C44.41918396 95.98719727 43.3950238 96.42483398 42.33982849 96.87573242 C40.78618591 97.52638672 40.78618591 97.52638672 39.20115662 98.19018555 C36.63951531 99.26442222 34.08192815 100.3473801 31.52732849 101.43823242 C31.52732849 102.09823242 31.52732849 102.75823242 31.52732849 103.43823242 C40.1714393 100.81412735 48.29658235 97.12439481 56.52732849 93.43823242 C52.82425953 92.2038761 51.9450343 92.8226687 48.42185974 94.30932617 Z M59.52732849 96.43823242 C59.19732849 96.76823242 58.86732849 97.09823242 58.52732849 97.43823242 C58.61750845 99.62873264 58.77399057 101.81669843 58.96482849 104.00073242 C59.06666443 105.19827148 59.16850037 106.39581055 59.27342224 107.62963867 C59.3572113 108.55647461 59.44100037 109.48331055 59.52732849 110.43823242 C61.50732849 110.93323242 61.50732849 110.93323242 63.52732849 111.43823242 C63.38549153 109.68790398 63.2386942 107.93797708 63.08982849 106.18823242 C63.00861755 105.21370117 62.92740662 104.23916992 62.84373474 103.23510742 C62.57658265 100.87361489 62.17360881 98.71922177 61.52732849 96.43823242 C60.86732849 96.43823242 60.20732849 96.43823242 59.52732849 96.43823242 Z M27.52732849 97.43823242 C27.52732849 99.08823242 27.52732849 100.73823242 27.52732849 102.43823242 C27.85732849 102.43823242 28.18732849 102.43823242 28.52732849 102.43823242 C28.52732849 100.78823242 28.52732849 99.13823242 28.52732849 97.43823242 C28.19732849 97.43823242 27.86732849 97.43823242 27.52732849 97.43823242 Z M63.52732849 97.43823242 C64.52732849 99.43823242 64.52732849 99.43823242 64.52732849 99.43823242 Z M-7.47267151 102.43823242 C-4.85068377 104.59200807 -2.82862979 105.83895416 0.52732849 106.43823242 C0.19732849 104.45823242 -0.13267151 102.47823242 -0.47267151 100.43823242 C-2.82554765 100.43823242 -5.26640375 101.68716255 -7.47267151 102.43823242 Z M28.52732849 103.43823242 C28.52732849 105.41823242 28.52732849 107.39823242 28.52732849 109.43823242 C28.85732849 109.43823242 29.18732849 109.43823242 29.52732849 109.43823242 C29.52732849 107.45823242 29.52732849 105.47823242 29.52732849 103.43823242 C29.19732849 103.43823242 28.86732849 103.43823242 28.52732849 103.43823242 Z M-44.47267151 104.43823242 C-44.47267151 106.08823242 -44.47267151 107.73823242 -44.47267151 109.43823242 C-42.28777144 106.76180754 -42.28777144 106.76180754 -42.47267151 104.43823242 C-43.13267151 104.43823242 -43.79267151 104.43823242 -44.47267151 104.43823242 Z M64.52732849 104.43823242 C65.52732849 106.43823242 65.52732849 106.43823242 65.52732849 106.43823242 Z M1.52732849 111.43823242 C2.84732849 111.76823242 4.16732849 112.09823242 5.52732849 112.43823242 C5.52732849 111.77823242 5.52732849 111.11823242 5.52732849 110.43823242 C6.18732849 110.10823242 6.84732849 109.77823242 7.52732849 109.43823242 C4.34242843 109.16088232 4.34242843 109.16088232 1.52732849 111.43823242 Z M29.52732849 110.43823242 C29.52732849 112.41823242 29.52732849 114.39823242 29.52732849 116.43823242 C29.85732849 116.43823242 30.18732849 116.43823242 30.52732849 116.43823242 C30.52732849 114.45823242 30.52732849 112.47823242 30.52732849 110.43823242 C30.19732849 110.43823242 29.86732849 110.43823242 29.52732849 110.43823242 Z M65.52732849 111.43823242 C66.52732849 113.43823242 66.52732849 113.43823242 66.52732849 113.43823242 Z M54.36668396 113.2109375 C53.14296082 113.82811646 53.14296082 113.82811646 51.89451599 114.45776367 C51.00635193 114.90313477 50.11818787 115.34850586 49.20310974 115.80737305 C47.81672302 116.52183594 47.81672302 116.52183594 46.40232849 117.25073242 C45.00434021 117.94779297 45.00434021 117.94779297 43.57810974 118.65893555 C38.78199574 120.72096162 38.78199574 120.72096162 35.52732849 124.43823242 C39.14126157 123.85407773 41.95209034 122.88342844 45.17185974 121.15307617 C46.01297302 120.70512695 46.8540863 120.25717773 47.72068787 119.7956543 C48.58500427 119.32708008 49.44932068 118.85850586 50.33982849 118.37573242 C51.22348083 117.90329102 52.10713318 117.43084961 53.01756287 116.9440918 C55.19064427 115.78119958 57.36035133 114.61244867 59.52732849 113.43823242 C56.66077652 112.13981533 56.66077652 112.13981533 54.36668396 113.2109375 Z M30.52732849 116.43823242 C30.52732849 118.08823242 30.52732849 119.73823242 30.52732849 121.43823242 C30.85732849 121.43823242 31.18732849 121.43823242 31.52732849 121.43823242 C31.52732849 119.78823242 31.52732849 118.13823242 31.52732849 116.43823242 C31.19732849 116.43823242 30.86732849 116.43823242 30.52732849 116.43823242 Z M62.52732849 116.43823242 C61.1905624 117.54090509 61.1905624 117.54090509 61.50779724 120.30932617 C61.57611755 121.48624023 61.64443787 122.6631543 61.71482849 123.87573242 C61.77025818 125.05006836 61.82568787 126.2244043 61.88279724 127.43432617 C62.19242627 130.55368276 62.19242627 130.55368276 64.57810974 131.84838867 C65.22135193 132.04303711 65.86459412 132.23768555 66.52732849 132.43823242 C66.38566492 130.52125305 66.23883265 128.60465519 66.08982849 126.68823242 C66.00861755 125.62088867 65.92740662 124.55354492 65.84373474 123.45385742 C65.58642076 121.0014328 65.20920631 118.79901951 64.52732849 116.43823242 C63.86732849 116.43823242 63.20732849 116.43823242 62.52732849 116.43823242 Z M96.52732849 118.43823242 C94.7908689 127.83684916 93.67829989 137.26957329 92.66746521 146.76708984 C92.40089006 149.26420677 92.12654222 151.76038961 91.85154724 154.2565918 C91.67790637 155.86526576 91.50471333 157.47398814 91.33201599 159.08276367 C91.25079498 159.81831985 91.16957397 160.55387604 91.08589172 161.3117218 C90.62376833 165.71472551 90.45255287 170.01086239 90.52732849 174.43823242 C94.15732849 176.08823242 97.78732849 177.73823242 101.52732849 179.43823242 C105.0011186 158.13645717 105.0011186 158.13645717 108.33982849 136.81323242 C108.46333679 136.02271484 108.58684509 135.23219727 108.71409607 134.41772461 C109.54441045 128.94930431 109.54441045 128.94930431 109.52732849 123.43823242 C106.29238976 119.64069566 101.19274542 119.31708156 96.52732849 118.43823242 Z M68.52732849 131.43823242 C69.52732849 133.43823242 69.52732849 133.43823242 69.52732849 133.43823242 Z M60.52732849 132.43823242 C59.53732849 133.42823242 58.54732849 134.41823242 57.52732849 135.43823242 C59.50732849 135.10823242 61.48732849 134.77823242 63.52732849 134.43823242 C62.53732849 133.77823242 61.54732849 133.11823242 60.52732849 132.43823242 Z M65.52732849 137.43823242 C65.52732849 138.09823242 65.52732849 138.75823242 65.52732849 139.43823242 C66.18732849 139.43823242 66.84732849 139.43823242 67.52732849 139.43823242 C67.52732849 138.77823242 67.52732849 138.11823242 67.52732849 137.43823242 C66.86732849 137.43823242 66.20732849 137.43823242 65.52732849 137.43823242 Z M69.52732849 138.43823242 C70.52732849 140.43823242 70.52732849 140.43823242 70.52732849 140.43823242 Z M71.52732849 168.43823242 C71.52732849 170.08823242 71.52732849 171.73823242 71.52732849 173.43823242 C72.18732849 173.43823242 72.84732849 173.43823242 73.52732849 173.43823242 C73.19732849 171.78823242 72.86732849 170.13823242 72.52732849 168.43823242 C72.19732849 168.43823242 71.86732849 168.43823242 71.52732849 168.43823242 Z " fill="#050505" transform="translate(163.47267150878906,21.561767578125)"/>
<path d="M0 0 C3.47914941 -0.02887814 6.95826831 -0.04675687 10.4375 -0.0625 C11.92733398 -0.07506836 11.92733398 -0.07506836 13.44726562 -0.08789062 C14.39150391 -0.09111328 15.33574219 -0.09433594 16.30859375 -0.09765625 C17.62041626 -0.10551147 17.62041626 -0.10551147 18.95874023 -0.11352539 C21 0 21 0 22 1 C22.23527773 3.34987262 22.41386417 5.70556039 22.5625 8.0625 C22.68818359 9.99802734 22.68818359 9.99802734 22.81640625 11.97265625 C22.87699219 12.97167969 22.93757813 13.97070312 23 15 C24.32 14.67 25.64 14.34 27 14 C27.33 9.38 27.66 4.76 28 0 C31.43755209 -0.026926 34.87489408 -0.04680317 38.3125 -0.0625 C39.28896484 -0.07087891 40.26542969 -0.07925781 41.27148438 -0.08789062 C42.20927734 -0.09111328 43.14707031 -0.09433594 44.11328125 -0.09765625 C44.97735596 -0.10289307 45.84143066 -0.10812988 46.73168945 -0.11352539 C49 0 49 0 52 1 C52.33 0.67 52.66 0.34 53 0 C58.73611111 -0.27314815 58.73611111 -0.27314815 61 0 C61.66 0.66 62.32 1.32 63 2 C63.33 1.34 63.66 0.68 64 0 C65.98 0 67.96 0 70 0 C70.495 1.485 70.495 1.485 71 3 C71.474375 2.505 71.94875 2.01 72.4375 1.5 C76.22409072 -0.71654091 79.71712947 -0.21296041 84 0 C84.99 0 85.98 0 87 0 C92.66666667 0 98.33333333 0 104 0 C104.34025361 3.66835926 104.36623402 5.46536373 102.25 8.5546875 C101.5075 9.32039062 100.765 10.08609375 100 10.875 C99.2575 11.65617188 98.515 12.43734375 97.75 13.2421875 C96.88375 14.11230469 96.88375 14.11230469 96 15 C98.64 15.33 101.28 15.66 104 16 C104 17.65 104 19.3 104 21 C99.76417673 21.04938628 95.52850535 21.08571263 91.29248047 21.10986328 C89.85104453 21.11992963 88.40962905 21.1335838 86.96826172 21.15087891 C84.89806066 21.17510012 82.82812924 21.18647641 80.7578125 21.1953125 C78.88826904 21.21102295 78.88826904 21.21102295 76.98095703 21.22705078 C74 21 74 21 72 19 C71.34 19.66 70.68 20.32 70 21 C65.98805634 21.27783543 62.02552638 21.0856495 58 21 C57.67 16.38 57.34 11.76 57 7 C56.01 6.67 55.02 6.34 54 6 C52.58365167 8.83269666 52.6536995 11.47466438 52.4375 14.625 C52.35371094 15.81351563 52.26992187 17.00203125 52.18359375 18.2265625 C52.09271484 19.59941406 52.09271484 19.59941406 52 21 C50.02 21 48.04 21 46 21 C45.505 13.575 45.505 13.575 45 6 C44.01 6 43.02 6 42 6 C41.67 10.95 41.34 15.9 41 21 C37.54947917 20.96744792 34.09895833 20.93489583 30.6484375 20.90234375 C27.05581799 20.90886983 27.05581799 20.90886983 23.7890625 21.56640625 C20.94981278 22.00780222 19.71042718 21.68944479 17 21 C15.55901569 20.92233916 14.11491371 20.89203633 12.671875 20.90234375 C11.47304688 20.90717773 11.47304688 20.90717773 10.25 20.91210938 C9.425 20.92048828 8.6 20.92886719 7.75 20.9375 C6.90953125 20.94201172 6.0690625 20.94652344 5.203125 20.95117188 C3.13538599 20.96292039 1.06768376 20.98085478 -1 21 C-1.34025361 17.33164074 -1.36623402 15.53463627 0.75 12.4453125 C1.4925 11.67960938 2.235 10.91390625 3 10.125 C3.7425 9.34382812 4.485 8.56265625 5.25 7.7578125 C5.8275 7.17773438 6.405 6.59765625 7 6 C4.36 5.67 1.72 5.34 -1 5 C-0.67 3.35 -0.34 1.7 0 0 Z M77 5 C76.67 5.99 76.34 6.98 76 8 C77.98 8 79.96 8 82 8 C81.67 7.01 81.34 6.02 81 5 C79.68 5 78.36 5 77 5 Z M88 5 C88.33 7.31 88.66 9.62 89 12 C92.42578949 8.82460444 92.42578949 8.82460444 95 5 C92.69 5 90.38 5 88 5 Z M14 8 C12.94741268 9.11673392 11.93213979 10.26885703 10.9375 11.4375 C10.38964844 12.07558594 9.84179688 12.71367187 9.27734375 13.37109375 C7.8971548 14.7861495 7.8971548 14.7861495 8 16 C10.64 16 13.28 16 16 16 C15.67 13.36 15.34 10.72 15 8 C14.67 8 14.34 8 14 8 Z M76 12 C76.66 13.32 77.32 14.64 78 16 C79.64767247 15.71890887 81.29313145 15.42481474 82.9375 15.125 C83.85402344 14.96257812 84.77054688 14.80015625 85.71484375 14.6328125 C86.46894531 14.42398438 87.22304687 14.21515625 88 14 C88.33 13.34 88.66 12.68 89 12 C84.71 12 80.42 12 76 12 Z " fill="#030303" transform="translate(51,149)"/>
<path d="M0 0 C2.375 0.5 2.375 0.5 5 2 C6.72523032 5.93595258 7 9.73545062 7 14 C8.01368652 13.73521851 8.01368652 13.73521851 9.04785156 13.46508789 C12.11517843 12.66401086 15.18258828 11.86325204 18.25 11.0625 C19.84521484 10.64581055 19.84521484 10.64581055 21.47265625 10.22070312 C22.49746094 9.95322266 23.52226562 9.68574219 24.578125 9.41015625 C25.52075195 9.16402588 26.46337891 8.91789551 27.43457031 8.66430664 C29.62043398 8.09828694 31.80841903 7.54338582 34 7 C34.625 9.3125 34.625 9.3125 35 12 C34.34 12.99 33.68 13.98 33 15 C32.34 15 31.68 15 31 15 C31 15.66 31 16.32 31 17 C24.07 18.98 17.14 20.96 10 23 C9.47825081 29.32917961 9.47825081 29.32917961 11 32 C17.83402803 34.89131955 22.38053638 33.34927844 29.2421875 30.9453125 C32 30 32 30 34 30 C33.505 26.04 33.505 26.04 33 22 C32.01 22 31.02 22 30 22 C30 20.68 30 19.36 30 18 C31.65 17.67 33.3 17.34 35 17 C37.29612756 26.41002278 37.29612756 26.41002278 37 31 C37.99 31 38.98 31 40 31 C40 28.69 40 26.38 40 24 C40.433125 24.474375 40.86625 24.94875 41.3125 25.4375 C43.02309613 27.23686957 43.02309613 27.23686957 46 28 C45.625 29.9375 45.625 29.9375 45 32 C44.01 32.495 44.01 32.495 43 33 C42.34 33.99 41.68 34.98 41 36 C40.01 35.505 40.01 35.505 39 35 C38.67 35.99 38.34 36.98 38 38 C37.67 37.34 37.34 36.68 37 36 C36.34 36.66 35.68 37.32 35 38 C34.67 38 34.34 38 34 38 C34 40.31 34 42.62 34 45 C33.16210938 45.09152344 32.32421875 45.18304688 31.4609375 45.27734375 C27.4825658 46.10804213 24.1873497 47.68464343 20.625 49.5625 C19.98433594 49.89185547 19.34367187 50.22121094 18.68359375 50.56054688 C17.11861368 51.36639482 15.55875979 52.18218493 14 53 C14 55.31 14 57.62 14 60 C16.96711853 58.93974011 19.92165385 57.8479815 22.875 56.75 C23.71675781 56.44964844 24.55851562 56.14929688 25.42578125 55.83984375 C26.23144531 55.53691406 27.03710938 55.23398438 27.8671875 54.921875 C28.98262939 54.51340332 28.98262939 54.51340332 30.12060547 54.09667969 C32.4373367 52.74480171 33.03059363 51.45702075 34 49 C34.12375 49.61875 34.2475 50.2375 34.375 50.875 C34.87197356 53.19120832 34.87197356 53.19120832 37 55 C35.68 55.66 34.36 56.32 33 57 C35.47266765 56.65555119 35.47266765 56.65555119 38 56 C38.495 55.01 38.495 55.01 39 54 C39.99 54 40.98 54 42 54 C42 55.65 42 57.3 42 59 C40.68 59 39.36 59 38 59 C37.42507812 59.59296875 36.85015625 60.1859375 36.2578125 60.796875 C33.17532109 63.80470399 29.8884358 64.84278459 25.875 66.25 C24.78251953 66.6521875 24.78251953 66.6521875 23.66796875 67.0625 C18.32007334 69 18.32007334 69 16 69 C16.13277344 69.59167969 16.26554687 70.18335937 16.40234375 70.79296875 C17.31005178 74.85446525 18.2091113 78.91374171 19 83 C18.01 83 17.02 83 16 83 C15.01 83.99 15.01 83.99 14 85 C14.66 85.33 15.32 85.66 16 86 C14.515 86.495 14.515 86.495 13 87 C11.01489434 85.01489434 11.18687036 81.35817372 10.78491211 78.63793945 C10.6091288 77.48174858 10.6091288 77.48174858 10.42979431 76.30220032 C10.04142746 73.73984411 9.65920099 71.17661505 9.27734375 68.61328125 C9.00996666 66.83542887 8.74234981 65.05761254 8.47450256 63.27983093 C7.91281255 59.54511082 7.35417096 55.8099503 6.79760742 52.07446289 C6.08495152 47.29310856 5.36464832 42.51294416 4.64200497 37.7330904 C4.08721285 34.05749978 3.53661001 30.38129089 2.98724556 26.70488548 C2.72341973 24.94288736 2.45827753 23.1810858 2.19178581 21.41948891 C1.81882437 18.94995164 1.45153972 16.47963318 1.08569336 14.0090332 C0.97505554 13.28411682 0.86441772 12.55920044 0.75042725 11.81231689 C0.16893057 7.83963399 -0.1089735 4.01398391 0 0 Z M2 2 C3 6 3 6 3 6 Z M3 8 C4 12 4 12 4 12 Z M21 13 C25 14 25 14 25 14 Z M17 14 C21 15 21 15 21 15 Z M4 15 C5 19 5 19 5 19 Z M13 15 C17 16 17 16 17 16 Z M9 16 C13 17 13 17 13 17 Z M5 21 C5 22.65 5 24.3 5 26 C5.33 26 5.66 26 6 26 C6 24.35 6 22.7 6 21 C5.67 21 5.34 21 5 21 Z M6 28 C7 32 7 32 7 32 Z M7 34 C7 35.65 7 37.3 7 39 C7.33 39 7.66 39 8 39 C8 37.35 8 35.7 8 34 C7.67 34 7.34 34 7 34 Z M22 37 C25.465 36.505 25.465 36.505 29 36 C25.51418144 34.7979936 25.32007656 34.78661563 22 37 Z M11 40 C13.12939828 41.35026777 13.12939828 41.35026777 16.125 40.0625 C17.548125 39.5365625 17.548125 39.5365625 19 39 C15.59745511 37.7848054 14.06748874 38.13759612 11 40 Z M8 41 C9 45 9 45 9 45 Z M18.8125 43.4375 C18.15830078 43.68048828 17.50410156 43.92347656 16.83007812 44.17382812 C15.21696714 44.7743293 13.6080565 45.38609203 12 46 C12.33 47.32 12.66 48.64 13 50 C18.28 47.36 23.56 44.72 29 42 C25.01754349 40.6725145 22.55210457 42.00092171 18.8125 43.4375 Z M9 47 C9 48.65 9 50.3 9 52 C9.33 52 9.66 52 10 52 C10 50.35 10 48.7 10 47 C9.67 47 9.34 47 9 47 Z M10 54 C10 55.65 10 57.3 10 59 C10.33 59 10.66 59 11 59 C11 57.35 11 55.7 11 54 C10.67 54 10.34 54 10 54 Z M21.375 59.8125 C20.39273438 60.16957031 19.41046875 60.52664062 18.3984375 60.89453125 C15.85838693 61.76231088 15.85838693 61.76231088 15 64 C22.60817846 61.81386858 22.60817846 61.81386858 30 59 C26.26221645 57.75407215 25.0089867 58.45574771 21.375 59.8125 Z M11 60 C11 61.65 11 63.3 11 65 C11.33 65 11.66 65 12 65 C12 63.35 12 61.7 12 60 C11.67 60 11.34 60 11 60 Z M12 67 C12 68.65 12 70.3 12 72 C12.33 72 12.66 72 13 72 C13 70.35 13 68.7 13 67 C12.67 67 12.34 67 12 67 Z M13 73 C13 74.98 13 76.96 13 79 C13.33 79 13.66 79 14 79 C14 77.02 14 75.04 14 73 C13.67 73 13.34 73 13 73 Z M35 52 C37 53 37 53 37 53 Z " fill="#07070A" transform="translate(177,39)"/>
<path d="M0 0 C2.97 0 5.94 0 9 0 C9.33 4.29 9.66 8.58 10 13 C10.99 12.34 11.98 11.68 13 11 C18.17318721 10.31130944 22.59644131 10.15786478 27.125 12.875 C30.27089515 16.44034784 30.11879465 18.62758776 30.09765625 23.3203125 C30.09443359 24.57714844 30.09121094 25.83398438 30.08789062 27.12890625 C30.07951172 28.44761719 30.07113281 29.76632813 30.0625 31.125 C30.05748489 32.46484211 30.05292201 33.804686 30.04882812 35.14453125 C30.03701086 38.42973206 30.02053617 41.71484397 30 45 C27.03 45 24.06 45 21 45 C20.95101562 43.53046875 20.90203125 42.0609375 20.8515625 40.546875 C20.77652132 38.61456465 20.70097407 36.6822739 20.625 34.75 C20.5940625 33.78191406 20.563125 32.81382812 20.53125 31.81640625 C20.49257812 30.88183594 20.45390625 29.94726562 20.4140625 28.984375 C20.36693115 27.69611816 20.36693115 27.69611816 20.31884766 26.38183594 C19.98283796 23.8717972 19.25808272 22.18067672 18 20 C15.58354218 19.83312552 15.58354218 19.83312552 13 20 C9.90237004 23.09762996 9.88434282 26.30246601 9.68359375 30.546875 C9.64169922 31.39121094 9.59980469 32.23554688 9.55664062 33.10546875 C9.51732422 33.97816406 9.47800781 34.85085937 9.4375 35.75 C9.39431641 36.63816406 9.35113281 37.52632812 9.30664062 38.44140625 C9.20086505 40.62743472 9.0999574 42.81369777 9 45 C6.03 45 3.06 45 0 45 C0 30.15 0 15.3 0 0 Z " fill="#010101" transform="translate(168,169)"/>
<path d="M0 0 C4.26469804 1.51794337 5.49935788 2.24903681 8 6 C8.30297852 8.58789062 8.30297852 8.58789062 8.37890625 11.65625 C8.43014648 13.31333984 8.43014648 13.31333984 8.48242188 15.00390625 C8.50884766 16.15761719 8.53527344 17.31132812 8.5625 18.5 C8.62240152 20.78135575 8.68603125 23.06261755 8.75390625 25.34375 C8.77783447 26.35630859 8.8017627 27.36886719 8.82641602 28.41210938 C8.89857233 31.11576376 8.89857233 31.11576376 10 34 C5.33333333 34 0.66666667 34 -4 34 C-4.99 34.495 -4.99 34.495 -6 35 C-10.91996928 35.53118252 -14.77327597 35.75105553 -19.0625 33.125 C-22.06331427 29.83378435 -22.34187583 27.49979718 -22.28515625 23.03515625 C-21.83321304 19.80964378 -20.31988026 18.19099803 -18 16 C-14.84516578 14.11816906 -11.85641186 13.47606864 -8.25 12.875 C-7.26515625 12.70742187 -6.2803125 12.53984375 -5.265625 12.3671875 C-4.51796875 12.24601563 -3.7703125 12.12484375 -3 12 C-3 11.01 -3 10.02 -3 9 C-6.41642759 8.74984127 -6.41642759 8.74984127 -10 9 C-10.99 10.485 -10.99 10.485 -12 12 C-14.1640625 12.29296875 -14.1640625 12.29296875 -16.625 12.1875 C-17.44226563 12.16042969 -18.25953125 12.13335937 -19.1015625 12.10546875 C-19.72804688 12.07066406 -20.35453125 12.03585938 -21 12 C-20.71998862 7.98650355 -20.24236211 6.27964858 -17.5625 3.1875 C-12.3323497 -1.27726245 -6.6291827 -0.4591293 0 0 Z M-7.625 20.5 C-8.85089844 20.91765625 -8.85089844 20.91765625 -10.1015625 21.34375 C-10.72804688 21.5603125 -11.35453125 21.776875 -12 22 C-12.042721 23.66611905 -12.04063832 25.33382885 -12 27 C-11.67 27.33 -11.34 27.66 -11 28 C-5.97500306 27.71530797 -5.97500306 27.71530797 -2 25 C-1.60235737 23.01178687 -1.26224651 21.01055661 -1 19 C-3.46620289 19 -5.29344126 19.70060843 -7.625 20.5 Z " fill="#020202" transform="translate(122,180)"/>
<path d="M0 0 C1.1034375 -0.00773438 2.206875 -0.01546875 3.34375 -0.0234375 C7.67883435 0.52381325 10.3044404 2.13821421 13.3125 5.25 C14.73893649 7.80257056 14.74002263 9.4947285 14.5 12.375 C11.46577997 12.60840154 8.52711805 12.73298961 5.5 12.375 C3.3125 10.375 3.3125 10.375 1.5 8.375 C-1.667832 8.04051741 -1.667832 8.04051741 -4.5 8.375 C-4.5 9.365 -4.5 10.355 -4.5 11.375 C-3.63117188 11.54515625 -2.76234375 11.7153125 -1.8671875 11.890625 C9.82512174 14.34941039 9.82512174 14.34941039 14.5 18.375 C16.11540873 21.60581745 16.0896275 24.88259098 15.5 28.375 C13.54342803 31.90287301 11.39144937 34.07785021 7.5 35.375 C5.06637528 35.54741708 2.62679404 35.64165768 0.1875 35.6875 C-1.10800781 35.72488281 -2.40351563 35.76226562 -3.73828125 35.80078125 C-8.06487908 35.31106249 -10.14404933 34.08693015 -13.5 31.375 C-15.58007422 28.3494375 -15.5 27.23024891 -15.5 23.375 C-12.2 23.375 -8.9 23.375 -5.5 23.375 C-5.17 24.365 -4.84 25.355 -4.5 26.375 C-3.22125 26.54 -1.9425 26.705 -0.625 26.875 C0.45394531 27.01421875 0.45394531 27.01421875 1.5546875 27.15625 C3.50498344 27.4122485 3.50498344 27.4122485 5.5 27.375 C5.17 26.385 4.84 25.395 4.5 24.375 C1.04700414 23.22701447 -2.44095626 22.4556566 -5.984375 21.6328125 C-9.97905563 20.20360454 -11.85767005 18.66301207 -14.5 15.375 C-15.05156805 11.51402368 -14.85698156 9.20169414 -13.3125 5.625 C-9.56280307 0.97020381 -5.85105547 -0.04101207 0 0 Z " fill="#030303" transform="translate(148.5,179.625)"/>
<path d="M0 0 C2.37362677 1.34703319 3.6281344 2.90846342 4.6015625 5.43359375 C5.1875 7.63671875 5.1875 7.63671875 5.8125 11.38671875 C2.5125 11.38671875 -0.7875 11.38671875 -4.1875 11.38671875 C-4.5175 10.06671875 -4.8475 8.74671875 -5.1875 7.38671875 C-7.4975 7.38671875 -9.8075 7.38671875 -12.1875 7.38671875 C-12.1875 8.37671875 -12.1875 9.36671875 -12.1875 10.38671875 C-11.22328125 10.6290625 -10.2590625 10.87140625 -9.265625 11.12109375 C-8.00234375 11.45625 -6.7390625 11.79140625 -5.4375 12.13671875 C-4.18453125 12.4615625 -2.9315625 12.78640625 -1.640625 13.12109375 C1.89877488 14.41833986 3.52543209 15.43745843 5.8125 18.38671875 C6.9338777 22.42367847 7.06270696 24.66389865 5.6875 28.63671875 C3.56151776 31.75482604 2.20487235 32.7788272 -1.1875 34.38671875 C-4.78125 34.78515625 -4.78125 34.78515625 -8.6875 34.76171875 C-9.9765625 34.76945312 -11.265625 34.7771875 -12.59375 34.78515625 C-17.21803468 34.27246382 -19.8005224 32.82152316 -23 29.51171875 C-24.42643649 26.95914819 -24.42752263 25.26699025 -24.1875 22.38671875 C-21.15336305 22.1533236 -18.21399947 22.0229061 -15.1875 22.38671875 C-13.83441687 23.70000532 -12.49879922 25.03170956 -11.1875 26.38671875 C-7.52385192 26.39942255 -7.52385192 26.39942255 -4.1875 25.38671875 C-3.8575 24.72671875 -3.5275 24.06671875 -3.1875 23.38671875 C-3.98414062 23.20496094 -4.78078125 23.02320313 -5.6015625 22.8359375 C-18.89084928 19.68336947 -18.89084928 19.68336947 -23.1875 15.38671875 C-23.7564079 12.00321386 -23.72522752 8.77280493 -23.1875 5.38671875 C-17.50050659 -1.9465096 -8.71480815 -2.44325871 0 0 Z " fill="#030303" transform="translate(73.1875,180.61328125)"/>
<path d="M0 0 C1.921875 1.4140625 1.921875 1.4140625 2.53125 4.015625 C2.57765625 5.01335937 2.6240625 6.01109375 2.671875 7.0390625 C2.72859375 8.04195312 2.7853125 9.04484375 2.84375 10.078125 C2.86953125 10.84898437 2.8953125 11.61984375 2.921875 12.4140625 C4.571875 12.0840625 6.221875 11.7540625 7.921875 11.4140625 C7.921875 12.7340625 7.921875 14.0540625 7.921875 15.4140625 C15.46903249 17.23730147 19.51647951 15.15052825 26.109375 11.4140625 C27.84580254 10.44299191 29.58911698 9.48410985 31.33984375 8.5390625 C32.10063232 8.10851562 32.8614209 7.67796875 33.64526367 7.234375 C36.46683198 6.21770267 38.04795787 6.73145239 40.921875 7.4140625 C41.911875 7.0840625 42.901875 6.7540625 43.921875 6.4140625 C43.591875 8.7240625 43.261875 11.0340625 42.921875 13.4140625 C42.426875 11.4340625 42.426875 11.4340625 41.921875 9.4140625 C41.261875 9.7440625 40.601875 10.0740625 39.921875 10.4140625 C40.03531876 12.5605378 40.16293845 14.70626842 40.296875 16.8515625 C40.40128906 18.64400391 40.40128906 18.64400391 40.5078125 20.47265625 C40.71277344 21.92865234 40.71277344 21.92865234 40.921875 23.4140625 C41.581875 23.7440625 42.241875 24.0740625 42.921875 24.4140625 C43.416875 22.9290625 43.416875 22.9290625 43.921875 21.4140625 C44.911875 21.7440625 45.901875 22.0740625 46.921875 22.4140625 C46.261875 24.0640625 45.601875 25.7140625 44.921875 27.4140625 C44.261875 27.4140625 43.601875 27.4140625 42.921875 27.4140625 C42.921875 29.0640625 42.921875 30.7140625 42.921875 32.4140625 C43.911875 32.9090625 43.911875 32.9090625 44.921875 33.4140625 C44.921875 34.4040625 44.921875 35.3940625 44.921875 36.4140625 C24.461875 26.1840625 4.001875 15.9540625 -17.078125 5.4140625 C-17.078125 4.7540625 -17.078125 4.0940625 -17.078125 3.4140625 C-15.66415598 2.90648388 -14.24680771 2.40831325 -12.828125 1.9140625 C-12.03921875 1.635625 -11.2503125 1.3571875 -10.4375 1.0703125 C-8.078125 0.4140625 -8.078125 0.4140625 -4.078125 0.4140625 C-2.078125 -0.5859375 -2.078125 -0.5859375 0 0 Z M37.921875 25.4140625 C36.931875 26.4040625 35.941875 27.3940625 34.921875 28.4140625 C36.901875 28.0840625 38.881875 27.7540625 40.921875 27.4140625 C39.931875 26.7540625 38.941875 26.0940625 37.921875 25.4140625 Z " fill="#040404" transform="translate(186.078125,128.5859375)"/>
<path d="M0 0 C2.77194593 0.84537677 5.32750082 1.86171331 8 3 C8.99 1.68 9.98 0.36 11 -1 C11.11466792 2.21417663 11.13992104 4.06243475 10 7 C7.00160328 9.70274674 3.52488572 11.37652238 -0.0625 13.1875 C-1.08512939 13.7335791 -2.10775879 14.2796582 -3.16137695 14.84228516 C-5.32626123 15.99603279 -7.4976241 17.13769379 -9.67480469 18.26806641 C-14.00956498 20.52583362 -18.30172313 22.8583689 -22.5949707 25.19384766 C-24.64064454 26.30591129 -26.68863127 27.41373181 -28.73901367 28.51708984 C-34.92547937 31.84664167 -41.02252997 35.27036118 -47.0234375 38.92578125 C-49 40 -49 40 -51 40 C-51.66 44.29 -52.32 48.58 -53 53 C-53.99 53 -54.98 53 -56 53 C-56 49.04 -56 45.08 -56 41 C-58.1346875 40.0409375 -58.1346875 40.0409375 -60.3125 39.0625 C-61.51326172 38.52302734 -61.51326172 38.52302734 -62.73828125 37.97265625 C-65.09489608 36.92153959 -65.09489608 36.92153959 -68 36 C-68.33 36.99 -68.66 37.98 -69 39 C-69.66 39 -70.32 39 -71 39 C-71 37.35 -71 35.7 -71 34 C-70.34 34 -69.68 34 -69 34 C-68.34 32.35 -67.68 30.7 -67 29 C-66.01 29.33 -65.02 29.66 -64 30 C-64 30.66 -64 31.32 -64 32 C-64.66 32 -65.32 32 -66 32 C-66 32.66 -66 33.32 -66 34 C-64.9275 34.12375 -63.855 34.2475 -62.75 34.375 C-59 35 -59 35 -56.875 36.125 C-54.22179306 37.36316324 -52.80800449 36.75679391 -50 36 C-48.12828939 35.10398667 -46.29133945 34.13358511 -44.484375 33.11328125 C-42.87163696 32.20944702 -42.87163696 32.20944702 -41.22631836 31.28735352 C-39.50554077 30.30980103 -39.50554077 30.30980103 -37.75 29.3125 C-36.55581239 28.64114711 -35.36122668 27.9705019 -34.16625977 27.30053711 C-30.43946255 25.20866172 -26.71935524 23.10507074 -23 21 C-19.42428208 18.97751001 -15.84767164 16.95665701 -12.26855469 14.94018555 C-10.07530814 13.70387221 -7.88448057 12.46325612 -5.69628906 11.21801758 C-4.71241211 10.66267334 -3.72853516 10.1073291 -2.71484375 9.53515625 C-1.84980225 9.044104 -0.98476074 8.55305176 -0.09350586 8.04711914 C2 7 2 7 4 7 C4 6.34 4 5.68 4 5 C2.783125 4.67 1.56625 4.34 0.3125 4 C-0.37199219 3.814375 -1.05648437 3.62875 -1.76171875 3.4375 C-6.22942307 2.56423144 -9.31913313 2.83360863 -13.328125 5.01171875 C-14.12863281 5.44033203 -14.92914063 5.86894531 -15.75390625 6.31054688 C-16.57761719 6.76494141 -17.40132813 7.21933594 -18.25 7.6875 C-19.05824219 8.12255859 -19.86648438 8.55761719 -20.69921875 9.00585938 C-23.99756112 10.78696425 -27.28217756 12.57587028 -30.50976562 14.48291016 C-31.30576172 14.94874512 -32.10175781 15.41458008 -32.921875 15.89453125 C-33.6344043 16.3222583 -34.34693359 16.74998535 -35.08105469 17.19067383 C-37 18 -37 18 -40 17 C-35.54704468 11.70850115 -30.04363389 9.25280215 -23.875 6.3125 C-21.89245913 5.35184796 -19.91065451 4.38967459 -17.9296875 3.42578125 C-17.05554199 3.00723877 -16.18139648 2.58869629 -15.28076172 2.1574707 C-9.2283381 -0.91409217 -6.78636085 -1.25932469 0 0 Z " fill="#0B0B0B" transform="translate(328,104)"/>
<path d="M0 0 C2.97 0 5.94 0 9 0 C9 1.98 9 3.96 9 6 C10.65 6 12.3 6 14 6 C14 8.64 14 11.28 14 14 C12.35 14 10.7 14 9 14 C9 19.61 9 25.22 9 31 C10.65 31 12.3 31 14 31 C14 33.64 14 36.28 14 39 C12.60517921 39.08204828 11.20891272 39.13966204 9.8125 39.1875 C9.03519531 39.22230469 8.25789063 39.25710937 7.45703125 39.29296875 C3.98590295 38.87908223 2.53301812 38.49734181 0 36 C-0.63772164 32.26025482 -0.46710563 28.59201301 -0.3125 24.8125 C-0.28994141 23.77673828 -0.26738281 22.74097656 -0.24414062 21.67382812 C-0.18516846 19.11443596 -0.10292567 16.55794049 0 14 C-1.65 14 -3.3 14 -5 14 C-5 11.36 -5 8.72 -5 6 C-3.35 6 -1.7 6 0 6 C0 4.02 0 2.04 0 0 Z " fill="#020202" transform="translate(85,176)"/>
<path d="M0 0 C2.41796875 0.7578125 2.41796875 0.7578125 5 2 C5.92578125 3.8046875 5.92578125 3.8046875 6.3125 5.875 C6.45300781 6.55304687 6.59351563 7.23109375 6.73828125 7.9296875 C7 10 7 10 7 14 C8.01368652 13.73521851 8.01368652 13.73521851 9.04785156 13.46508789 C12.11517843 12.66401086 15.18258828 11.86325204 18.25 11.0625 C19.84521484 10.64581055 19.84521484 10.64581055 21.47265625 10.22070312 C22.49746094 9.95322266 23.52226562 9.68574219 24.578125 9.41015625 C25.52075195 9.16402588 26.46337891 8.91789551 27.43457031 8.66430664 C29.62043398 8.09828694 31.80841903 7.54338582 34 7 C34.625 9.3125 34.625 9.3125 35 12 C34.34 12.99 33.68 13.98 33 15 C32.34 15 31.68 15 31 15 C31 15.66 31 16.32 31 17 C24.07 18.98 17.14 20.96 10 23 C10.04125 24.77375 10.0825 26.5475 10.125 28.375 C10.1953125 31.3984375 10.1953125 31.3984375 10 34 C9.34 34.66 8.68 35.32 8 36 C7.34 33.69 6.68 31.38 6 29 C5.34 29 4.68 29 4 29 C2.02701352 19.33360714 0.49059462 9.87956066 0 0 Z M2 2 C3 6 3 6 3 6 Z M3 8 C4 12 4 12 4 12 Z M21 13 C25 14 25 14 25 14 Z M17 14 C21 15 21 15 21 15 Z M4 15 C5 19 5 19 5 19 Z M13 15 C17 16 17 16 17 16 Z M9 16 C13 17 13 17 13 17 Z M5 21 C5 22.65 5 24.3 5 26 C5.33 26 5.66 26 6 26 C6 24.35 6 22.7 6 21 C5.67 21 5.34 21 5 21 Z " fill="#070707" transform="translate(177,39)"/>
<path d="M0 0 C1.921875 1.4140625 1.921875 1.4140625 2.53125 4.015625 C2.57765625 5.01335937 2.6240625 6.01109375 2.671875 7.0390625 C2.72859375 8.04195312 2.7853125 9.04484375 2.84375 10.078125 C2.86953125 10.84898437 2.8953125 11.61984375 2.921875 12.4140625 C4.571875 12.0840625 6.221875 11.7540625 7.921875 11.4140625 C7.921875 12.7340625 7.921875 14.0540625 7.921875 15.4140625 C13.88317215 16.54465334 16.51149355 16.50570904 21.921875 13.4140625 C22.581875 13.7440625 23.241875 14.0740625 23.921875 14.4140625 C23.921875 15.4040625 23.921875 16.3940625 23.921875 17.4140625 C22.931875 18.0740625 21.941875 18.7340625 20.921875 19.4140625 C21.85 20.0946875 21.85 20.0946875 22.796875 20.7890625 C24.921875 22.4140625 24.921875 22.4140625 26.921875 24.4140625 C26.261875 25.0740625 25.601875 25.7340625 24.921875 26.4140625 C11.061875 19.4840625 -2.798125 12.5540625 -17.078125 5.4140625 C-17.078125 4.7540625 -17.078125 4.0940625 -17.078125 3.4140625 C-15.66415598 2.90648388 -14.24680771 2.40831325 -12.828125 1.9140625 C-12.03921875 1.635625 -11.2503125 1.3571875 -10.4375 1.0703125 C-8.078125 0.4140625 -8.078125 0.4140625 -4.078125 0.4140625 C-2.078125 -0.5859375 -2.078125 -0.5859375 0 0 Z " fill="#0C0C0C" transform="translate(186.078125,128.5859375)"/>
<path d="M0 0 C4.95 0 9.9 0 15 0 C15 1.65 15 3.3 15 5 C11.7 5 8.4 5 5 5 C5 5.99 5 6.98 5 8 C7.97 8 10.94 8 14 8 C14 9.32 14 10.64 14 12 C11.03 12 8.06 12 5 12 C5 13.32 5 14.64 5 16 C8.3 16 11.6 16 15 16 C15.33 17.65 15.66 19.3 16 21 C10.72 21 5.44 21 0 21 C0 14.07 0 7.14 0 0 Z " fill="#020202" transform="translate(85,121)"/>
<path d="M0 0 C1.65 0 3.3 0 5 0 C5 2.64 5 5.28 5 8 C7.31 8 9.62 8 12 8 C12 5.36 12 2.72 12 0 C13.65 0 15.3 0 17 0 C17 6.93 17 13.86 17 21 C15.35 21 13.7 21 12 21 C12 18.03 12 15.06 12 12 C9.69 12 7.38 12 5 12 C5 14.97 5 17.94 5 21 C3.35 21 1.7 21 0 21 C0 14.07 0 7.14 0 0 Z " fill="#020202" transform="translate(67,121)"/>
<path d="M0 0 C5.61 0 11.22 0 17 0 C17 1.65 17 3.3 17 5 C15.02 5 13.04 5 11 5 C11 10.28 11 15.56 11 21 C9.35 21 7.7 21 6 21 C6 15.72 6 10.44 6 5 C4.02 5 2.04 5 0 5 C0 3.35 0 1.7 0 0 Z " fill="#010101" transform="translate(49,121)"/>
<path d="M0 0 C6.23571687 1.06501813 11.8951032 3.55016471 17.75 5.875 C18.91144531 6.32230469 20.07289063 6.76960938 21.26953125 7.23046875 C22.37167969 7.66746094 23.47382813 8.10445312 24.609375 8.5546875 C26.1248291 9.14999268 26.1248291 9.14999268 27.67089844 9.75732422 C30 11 30 11 31 14 C30.01 14.33 29.02 14.66 28 15 C28 15.66 28 16.32 28 17 C27.34 17 26.68 17 26 17 C26 15.68 26 14.36 26 13 C24.35 13.66 22.7 14.32 21 15 C21 13.68 21 12.36 21 11 C19.25364835 10.46706165 17.50272348 9.94909337 15.75 9.4375 C14.77546875 9.14746094 13.8009375 8.85742188 12.796875 8.55859375 C9.97179708 7.99436729 8.68952017 8.21169236 6 9 C3.25 8.0625 3.25 8.0625 1 7 C1.33 6.01 1.66 5.02 2 4 C1.34 3.67 0.68 3.34 0 3 C0 2.01 0 1.02 0 0 Z " fill="#0C0C0C" transform="translate(234,111)"/>
<path d="M0 0 C1.85953078 3.25808543 2.53823806 6.24462525 3.125 9.9375 C3.29257813 10.95714844 3.46015625 11.97679688 3.6328125 13.02734375 C3.96614565 15.72592382 4.06998996 18.28538935 4 21 C3.01 21 2.02 21 1 21 C1 19.02 1 17.04 1 15 C-5.6 14.01 -12.2 13.02 -19 12 C-18.67 10.68 -18.34 9.36 -18 8 C-17.01 7.67 -16.02 7.34 -15 7 C-15 7.66 -15 8.32 -15 9 C-13.205625 9.2165625 -13.205625 9.2165625 -11.375 9.4375 C-7.8994842 9.87039343 -4.45049966 10.39616256 -1 11 C-1.01160156 10.28972656 -1.02320313 9.57945313 -1.03515625 8.84765625 C-1.04417969 7.92855469 -1.05320313 7.00945312 -1.0625 6.0625 C-1.07410156 5.14597656 -1.08570313 4.22945312 -1.09765625 3.28515625 C-1 1 -1 1 0 0 Z " fill="#0A0A0A" transform="translate(175,57)"/>
<path d="M0 0 C0.66 0 1.32 0 2 0 C2.66 2.31 3.32 4.62 4 7 C4.99 5.68 5.98 4.36 7 3 C8.32 3.33 9.64 3.66 11 4 C11 5.98 11 7.96 11 10 C11.33 10 11.66 10 12 10 C12.99 10.33 13.98 10.66 15 11 C14.67 11.66 14.34 12.32 14 13 C10.9375 13.625 10.9375 13.625 8 14 C7.67 14.99 7.34 15.98 7 17 C6.34 16.34 5.68 15.68 5 15 C4.01 15.66 3.02 16.32 2 17 C1.34 11.39 0.68 5.78 0 0 Z " fill="#090909" transform="translate(181,68)"/>
<path d="M0 0 C0 1.32 0 2.64 0 4 C5.96129715 5.13059084 8.58961855 5.09164654 14 2 C14.66 2.33 15.32 2.66 16 3 C16 3.99 16 4.98 16 6 C15.01 6.66 14.02 7.32 13 8 C13.61875 8.45375 14.2375 8.9075 14.875 9.375 C17 11 17 11 19 13 C18.34 13.66 17.68 14.32 17 15 C9.74 11.37 2.48 7.74 -5 4 C-5 3.01 -5 2.02 -5 1 C-2 0 -2 0 0 0 Z " fill="#0D0D0E" transform="translate(194,140)"/>
<path d="M0 0 C1.32 0 2.64 0 4 0 C4 1.65 4 3.3 4 5 C2.68 5 1.36 5 0 5 C-0.556875 5.598125 -1.11375 6.19625 -1.6875 6.8125 C-4.98022938 9.927244 -8.70167677 10.78765242 -13 12 C-13.66 10.68 -14.32 9.36 -15 8 C-10.38194915 4.76736441 -5.36785295 3.46964518 0 2 C0 1.34 0 0.68 0 0 Z " fill="#0E0E10" transform="translate(215,93)"/>
<path d="M0 0 C0.625 2.3125 0.625 2.3125 1 5 C0.01 6.485 0.01 6.485 -1 8 C-1.66 8 -2.32 8 -3 8 C-3 8.66 -3 9.32 -3 10 C-5.97 10.66 -8.94 11.32 -12 12 C-12.66 10.68 -13.32 9.36 -14 8 C-12.02 7.01 -10.04 6.02 -8 5 C-8 4.01 -8 3.02 -8 2 C-2.25 0 -2.25 0 0 0 Z " fill="#0E0E0E" transform="translate(211,46)"/>
<path d="M0 0 C2.4140625 0.765625 2.4140625 0.765625 5 2 C6.87202888 7.10553331 7.33853749 10.64585003 6 16 C3.55078125 14.91796875 3.55078125 14.91796875 1 13 C0.29296875 9.86328125 0.29296875 9.86328125 0.1875 6.3125 C0.13980469 5.13300781 0.09210938 3.95351563 0.04296875 2.73828125 C0.02878906 1.83464844 0.01460937 0.93101563 0 0 Z M2 2 C3 6 3 6 3 6 Z M3 8 C4 12 4 12 4 12 Z " fill="#0E0E0E" transform="translate(177,39)"/>
<path d="M0 0 C0.99 -0.33 1.98 -0.66 3 -1 C2.67 1.31 2.34 3.62 2 6 C1.67 4.68 1.34 3.36 1 2 C0.401875 2.350625 -0.19625 2.70125 -0.8125 3.0625 C-3 4 -3 4 -6 3 C-9.1668838 4.37492804 -9.1668838 4.37492804 -12 6 C-11.67 6.66 -11.34 7.32 -11 8 C-14.75 9.125 -14.75 9.125 -17 8 C-17 7.01 -17 6.02 -17 5 C-15.11351956 3.96198445 -13.21536344 2.94516833 -11.3125 1.9375 C-10.25675781 1.36902344 -9.20101562 0.80054688 -8.11328125 0.21484375 C-4.69835135 -1.11770732 -3.43991973 -0.93176701 0 0 Z " fill="#0F0F11" transform="translate(227,136)"/>
<path d="M0 0 C1.73602074 3.05938081 2.39557633 5.63288438 2.75 9.125 C2.89695313 10.42824219 2.89695313 10.42824219 3.046875 11.7578125 C3 14 3 14 1 16 C-2.93846154 11.69230769 -2.93846154 11.69230769 -3.25 8.1875 C-3.1675 7.465625 -3.085 6.74375 -3 6 C-3.99 6 -4.98 6 -6 6 C-6 5.34 -6 4.68 -6 4 C-5.34 4 -4.68 4 -4 4 C-2.62689293 2.70766393 -1.28965176 1.37562854 0 0 Z M-1 8 C0 11 0 11 0 11 Z " fill="#050505" transform="translate(222,70)"/>
<path d="M0 0 C0.99 0.33 1.98 0.66 3 1 C3 1.66 3 2.32 3 3 C2.34 3 1.68 3 1 3 C1 3.66 1 4.32 1 5 C3.31 5.33 5.62 5.66 8 6 C8 6.99 8 7.98 8 9 C3.545 8.01 3.545 8.01 -1 7 C-1.33 7.99 -1.66 8.98 -2 10 C-2.66 10 -3.32 10 -4 10 C-4 8.35 -4 6.7 -4 5 C-3.34 5 -2.68 5 -2 5 C-1.34 3.35 -0.68 1.7 0 0 Z " fill="#0C0C0C" transform="translate(261,133)"/>
<path d="M0 0 C0.33 0.66 0.66 1.32 1 2 C2.94660131 2.29693918 4.89629767 2.58356787 6.85546875 2.78125 C9.59344008 3.06053305 12.28991229 3.52573465 15 4 C10.19597133 6.40201433 8.31625974 7.04655761 2.875 6.0625 C1.77929688 5.86785156 0.68359375 5.67320313 -0.4453125 5.47265625 C-1.70988281 5.23869141 -1.70988281 5.23869141 -3 5 C-2.625 3.0625 -2.625 3.0625 -2 1 C-1.34 0.67 -0.68 0.34 0 0 Z " fill="#141414" transform="translate(159,64)"/>
<path d="M0 0 C6.625 0.75 6.625 0.75 10 3 C10 3.66 10 4.32 10 5 C10.66 5.33 11.32 5.66 12 6 C12 6.99 12 7.98 12 9 C8.04 7.02 4.08 5.04 0 3 C0 2.01 0 1.02 0 0 Z " fill="#262626" transform="translate(219,156)"/>
<path d="M0 0 C0.66 0 1.32 0 2 0 C2.0825 0.61875 2.165 1.2375 2.25 1.875 C2.81258459 4.18437567 2.81258459 4.18437567 5.0625 5.25 C5.701875 5.4975 6.34125 5.745 7 6 C6.01 6.66 5.02 7.32 4 8 C2.98442412 11.3006216 2.8907096 12.67212881 4 16 C3.34 16.66 2.68 17.32 2 18 C1.66191314 15.93827387 1.32972639 13.8755797 1 11.8125 C0.814375 10.66394531 0.62875 9.51539062 0.4375 8.33203125 C0.06510523 5.49584607 -0.08596021 2.85280436 0 0 Z " fill="#111111" transform="translate(223,103)"/>
<path d="M0 0 C0.433125 0.474375 0.86625 0.94875 1.3125 1.4375 C3.02309613 3.23686957 3.02309613 3.23686957 6 4 C5.625 5.9375 5.625 5.9375 5 8 C4.01 8.495 4.01 8.495 3 9 C2.01 10.485 2.01 10.485 1 12 C0.34 11.67 -0.32 11.34 -1 11 C-1.33 11.99 -1.66 12.98 -2 14 C-2.33 13.01 -2.66 12.02 -3 11 C-2.01 10.34 -1.02 9.68 0 9 C0.36362818 6.79274927 0.36362818 6.79274927 0.1875 4.375 C0.14689453 3.14910156 0.14689453 3.14910156 0.10546875 1.8984375 C0.07066406 1.27195312 0.03585938 0.64546875 0 0 Z " fill="#151515" transform="translate(217,63)"/>
<path d="M0 0 C-0.33 0.99 -0.66 1.98 -1 3 C-6.16404031 4.69166838 -10.5964423 5.22514824 -16 5 C-16 4.34 -16 3.68 -16 3 C-14.08487728 2.49411853 -12.16783078 1.99551609 -10.25 1.5 C-8.64898437 1.08234375 -8.64898437 1.08234375 -7.015625 0.65625 C-4 0 -4 0 0 0 Z " fill="#030303" transform="translate(203,49)"/>
<path d="M0 0 C1.9375 0.6875 1.9375 0.6875 4 2 C4.75 4.625 4.75 4.625 5 7 C4.01 7 3.02 7 2 7 C1.34 7.66 0.68 8.32 0 9 C0.66 9.33 1.32 9.66 2 10 C1.01 10.33 0.02 10.66 -1 11 C-3.04698414 8.95301586 -2.70045693 4.69588759 -3 2 C-2.34 2 -1.68 2 -1 2 C-0.67 1.34 -0.34 0.68 0 0 Z " fill="#151515" transform="translate(191,115)"/>
<path d="M0 0 C0.28875 0.639375 0.5775 1.27875 0.875 1.9375 C1.82823451 4.15206079 1.82823451 4.15206079 4 5 C4.33 4.01 4.66 3.02 5 2 C5.99 2.33 6.98 2.66 8 3 C7.34 4.65 6.68 6.3 6 8 C5.34 8 4.68 8 4 8 C4 8.66 4 9.32 4 10 C2.68 9.67 1.36 9.34 0 9 C-1.125 2.25 -1.125 2.25 0 0 Z " fill="#0B0B0B" transform="translate(225,148)"/>
<path d="M0 0 C2.475 0.99 2.475 0.99 5 2 C3 5 3 5 0.6171875 5.73046875 C-0.74019531 5.95669922 -0.74019531 5.95669922 -2.125 6.1875 C-3.49011719 6.42533203 -3.49011719 6.42533203 -4.8828125 6.66796875 C-5.58148438 6.77753906 -6.28015625 6.88710938 -7 7 C-6.34 5.68 -5.68 4.36 -5 3 C-4.01 3.33 -3.02 3.66 -2 4 C-1.67 3.34 -1.34 2.68 -1 2 C-0.67 1.34 -0.34 0.68 0 0 Z " fill="#020202" transform="translate(195,54)"/>
<path d="M0 0 C0 1.32 0 2.64 0 4 C1.98 4.66 3.96 5.32 6 6 C5.67 6.66 5.34 7.32 5 8 C0.94718288 6.77472971 -2.44360764 5.30119506 -6 3 C-4.60722783 0.21445565 -3.01148006 0 0 0 Z " fill="#2D2D2D" transform="translate(194,140)"/>
<path d="M0 0 C3.3 0.33 6.6 0.66 10 1 C10 1.99 10 2.98 10 4 C6.37 4 2.74 4 -1 4 C-0.67 2.68 -0.34 1.36 0 0 Z " fill="#060606" transform="translate(318,103)"/>
<path d="M0 0 C0.625 2.375 0.625 2.375 1 5 C0.34 5.66 -0.32 6.32 -1 7 C-3.31 6.34 -5.62 5.68 -8 5 C-8 4.01 -8 3.02 -8 2 C-2.25 0 -2.25 0 0 0 Z " fill="#1C1C1C" transform="translate(211,46)"/>
<path d="M0 0 C0.66 0 1.32 0 2 0 C2.36644578 1.55966592 2.71760862 3.12292651 3.0625 4.6875 C3.25972656 5.55761719 3.45695313 6.42773438 3.66015625 7.32421875 C4.02032279 10.16001276 3.70909969 12.24789982 3 15 C2.67 14.01 2.34 13.02 2 12 C1.34 11.67 0.68 11.34 0 11 C0.66 11 1.32 11 2 11 C1.67 9.741875 1.34 8.48375 1 7.1875 C0.32396773 4.61012698 0 2.69787075 0 0 Z " fill="#141414" transform="translate(213,38)"/>
<path d="M0 0 C3.66881155 0.70554068 6.70450534 2.27735506 10 4 C9.01 5.485 9.01 5.485 8 7 C5.36 5.68 2.72 4.36 0 3 C0 2.01 0 1.02 0 0 Z " fill="#2C2C2C" transform="translate(203,148)"/>
<path d="M0 0 C4.455 0.99 4.455 0.99 9 2 C8.67 2.99 8.34 3.98 8 5 C4.7 4.34 1.4 3.68 -2 3 C-1.34 2.01 -0.68 1.02 0 0 Z " fill="#0F0F0F" transform="translate(95,89)"/>
<path d="M0 0 C0.66 0.66 1.32 1.32 2 2 C1.625 4.625 1.625 4.625 1 7 C0.34 7 -0.32 7 -1 7 C-1 6.34 -1 5.68 -1 5 C-1.99 5 -2.98 5 -4 5 C-4 3.68 -4 2.36 -4 1 C-2.125 0.375 -2.125 0.375 0 0 Z " fill="#0F0F0F" transform="translate(211,56)"/>
<path d="M0 0 C0.33 0.99 0.66 1.98 1 3 C0.34 3 -0.32 3 -1 3 C-0.67 5.64 -0.34 8.28 0 11 C-0.99 10.67 -1.98 10.34 -3 10 C-3.75 7.25 -3.75 7.25 -4 4 C-2.0625 1.625 -2.0625 1.625 0 0 Z " fill="#020202" transform="translate(194,105)"/>
<path d="M0 0 C0.33 1.98 0.66 3.96 1 6 C-1.31 6.33 -3.62 6.66 -6 7 C-6.33 6.34 -6.66 5.68 -7 5 C-5.7686606 2.53732119 -2.95115582 0 0 0 Z " fill="#181818" transform="translate(210,78)"/>
<path d="M0 0 C0.66 0 1.32 0 2 0 C2.33 0.99 2.66 1.98 3 3 C2.01 4.485 2.01 4.485 1 6 C0.01 6 -0.98 6 -2 6 C-2.33 5.67 -2.66 5.34 -3 5 C-3.99 5 -4.98 5 -6 5 C-4.60804085 2.2160817 -2.84424221 2.02101003 0 1 C0 0.67 0 0.34 0 0 Z " fill="#1E1E1E" transform="translate(211,71)"/>
<path d="M0 0 C2.31 0 4.62 0 7 0 C7 0.99 7 1.98 7 3 C4.69 3.33 2.38 3.66 0 4 C0 2.68 0 1.36 0 0 Z " fill="#07070D" transform="translate(192,73)"/>
<path d="M0 0 C0.66 0.99 1.32 1.98 2 3 C1.06027344 3.19916016 1.06027344 3.19916016 0.1015625 3.40234375 C-1.12433594 3.66724609 -1.12433594 3.66724609 -2.375 3.9375 C-3.18710938 4.11152344 -3.99921875 4.28554688 -4.8359375 4.46484375 C-7.029463 4.92330693 -7.029463 4.92330693 -9 6 C-8.67 4.68 -8.34 3.36 -8 2 C-5.36 1.34 -2.72 0.68 0 0 Z " fill="#181818" transform="translate(194,54)"/>
<path d="M0 0 C0.99 0.33 1.98 0.66 3 1 C2.67 2.98 2.34 4.96 2 7 C0.35 6.01 -1.3 5.02 -3 4 C-2.67 3.01 -2.34 2.02 -2 1 C-1.34 0.67 -0.68 0.34 0 0 Z " fill="#151515" transform="translate(181,48)"/>
<path d="M0 0 C0.33 0 0.66 0 1 0 C1.33 3.63 1.66 7.26 2 11 C1.01 11.495 1.01 11.495 0 12 C-0.19477739 10.37585622 -0.38059458 8.75063577 -0.5625 7.125 C-0.66691406 6.22007813 -0.77132812 5.31515625 -0.87890625 4.3828125 C-1 2 -1 2 0 0 Z " fill="#181818" transform="translate(185,85)"/>
<path d="M0 0 C0.66 0.33 1.32 0.66 2 1 C2 3.64 2 6.28 2 9 C1.01 9 0.02 9 -1 9 C-1.08886184 5.80097361 -0.91058531 3.07322544 0 0 Z " fill="#101010" transform="translate(342,77)"/>
<path d="M0 0 C0.66 0.33 1.32 0.66 2 1 C2 1.99 2 2.98 2 4 C0.02 4.66 -1.96 5.32 -4 6 C-4 5.01 -4 4.02 -4 3 C-2 1.3125 -2 1.3125 0 0 Z " fill="#1A1A1A" transform="translate(293,116)"/>
<path d="M0 0 C1.65 0.33 3.3 0.66 5 1 C4.67 2.32 4.34 3.64 4 5 C2.35 4.67 0.7 4.34 -1 4 C-0.67 2.68 -0.34 1.36 0 0 Z " fill="#292929" transform="translate(187,71)"/>
<path d="M0 0 C1.32 0 2.64 0 4 0 C4 1.65 4 3.3 4 5 C2.02 5 0.04 5 -2 5 C-2 4.01 -2 3.02 -2 2 C-1.34 2 -0.68 2 0 2 C0 1.34 0 0.68 0 0 Z " fill="#2A2A2A" transform="translate(215,93)"/>
<path d="M0 0 C0.66 0.33 1.32 0.66 2 1 C2 1.66 2 2.32 2 3 C2.66 3.66 3.32 4.32 4 5 C2.02 5.33 0.04 5.66 -2 6 C-2 4.35 -2 2.7 -2 1 C-1.34 0.67 -0.68 0.34 0 0 Z " fill="#18181B" transform="translate(199,76)"/>
<path d="M0 0 C0.66 0 1.32 0 2 0 C2.33 2.97 2.66 5.94 3 9 C2.01 9.495 2.01 9.495 1 10 C0.67 6.7 0.34 3.4 0 0 Z " fill="#1C1C1C" transform="translate(181,68)"/>
<path d="M0 0 C-1.32 1.32 -2.64 2.64 -4 4 C-4.99 3.67 -5.98 3.34 -7 3 C-6.67 2.01 -6.34 1.02 -6 0 C-3 -1 -3 -1 0 0 Z " fill="#0A0A0A" transform="translate(223,154)"/>
<path d="M0 0 C0.598125 0.350625 1.19625 0.70125 1.8125 1.0625 C-0.1675 2.0525 -2.1475 3.0425 -4.1875 4.0625 C-4.8475 3.4025 -5.5075 2.7425 -6.1875 2.0625 C-4.66896708 -0.97456585 -3.05066334 -1.30742714 0 0 Z " fill="#111111" transform="translate(202.1875,141.9375)"/>
<path d="M0 0 C2.97 0.495 2.97 0.495 6 1 C6 1.99 6 2.98 6 4 C3.03 3.505 3.03 3.505 0 3 C0 2.01 0 1.02 0 0 Z " fill="#171717" transform="translate(263,138)"/>
<path d="M0 0 C2 2 2 2 2 6 C0.68 5.67 -0.64 5.34 -2 5 C-1.125 1.125 -1.125 1.125 0 0 Z " fill="#151515" transform="translate(235,161)"/>
<path d="M0 0 C-0.33 0.66 -0.66 1.32 -1 2 C-4.0625 2.625 -4.0625 2.625 -7 3 C-6.67 2.01 -6.34 1.02 -6 0 C-3 -1 -3 -1 0 0 Z " fill="#2E2E2F" transform="translate(196,79)"/>
<path d="M0 0 C0.99 0 1.98 0 3 0 C3 1.65 3 3.3 3 5 C2.01 5 1.02 5 0 5 C-0.33 4.01 -0.66 3.02 -1 2 C-0.67 1.34 -0.34 0.68 0 0 Z " fill="#050505" transform="translate(308,93)"/>
<path d="M0 0 C0.99 0 1.98 0 3 0 C3 1.65 3 3.3 3 5 C2.01 5 1.02 5 0 5 C0 3.35 0 1.7 0 0 Z " fill="#020202" transform="translate(288,85)"/>
<path d="M0 0 C0.99 0 1.98 0 3 0 C3 1.65 3 3.3 3 5 C2.01 4.67 1.02 4.34 0 4 C0 2.68 0 1.36 0 0 Z " fill="#020202" transform="translate(269,79)"/>
<path d="M0 0 C0.99 0 1.98 0 3 0 C3.33 0.99 3.66 1.98 4 3 C2.68 3.33 1.36 3.66 0 4 C0 2.68 0 1.36 0 0 Z " fill="#141414" transform="translate(252,73)"/>
<path d="M0 0 C0.99 0.33 1.98 0.66 3 1 C2.67 2.32 2.34 3.64 2 5 C1.34 5 0.68 5 0 5 C0 3.35 0 1.7 0 0 Z " fill="#020202" transform="translate(236,67)"/>
<path d="M0 0 C0.66 0 1.32 0 2 0 C2 1.32 2 2.64 2 4 C1.01 3.67 0.02 3.34 -1 3 C-0.67 2.01 -0.34 1.02 0 0 Z " fill="#020202" transform="translate(167,44)"/>
</svg>
